<svg width="20" height="20" viewBox="0 0 20 20" fill="none" xmlns="http://www.w3.org/2000/svg">
<g id="call (1) 1" clip-path="url(#clip0_239_1174)">
<path id="Vector" d="M19.6523 13.9242L14.5441 11.6461C14.3199 11.5461 14.0575 11.5967 13.8861 11.7728C13.5468 12.1218 12.7457 12.9404 12.2554 13.4228C11.2802 12.7369 10.2382 11.8352 9.21753 10.7923C9.21479 10.7896 9.21204 10.7868 9.20929 10.7841C8.18406 9.77672 7.3169 8.76935 6.62674 7.784C7.21817 7.18575 8.25974 6.15576 8.27271 6.14292C8.4462 5.97138 8.49564 5.71009 8.39661 5.48673L6.13343 0.379248C6.01685 0.115977 5.72663 -0.0237609 5.44861 0.0497775L1.51688 1.08772C0.32364 1.39197 -0.258788 2.6438 0.109712 3.84213C1.24695 7.54106 2.88391 10.6945 6.07971 13.9403C6.08078 13.9413 6.08185 13.9424 6.08292 13.9435L6.10337 13.964C6.10443 13.965 6.1055 13.9661 6.10657 13.9672C10.3291 18.1413 14.1385 19.3173 16.185 19.949C17.3691 20.3144 18.627 19.7455 18.934 18.5399L19.9802 14.6119C20.0543 14.333 19.9153 14.0415 19.6523 13.9242ZM17.8008 18.2405C17.8001 18.243 17.7995 18.2454 17.7989 18.2479C17.6608 18.7946 17.0746 18.995 16.53 18.8268C14.4426 18.1824 10.9491 17.1041 6.93116 13.133L6.91239 13.1141C2.94876 9.08797 1.78772 5.31152 1.22955 3.49645C1.06171 2.95019 1.26221 2.36326 1.80741 2.2252C1.80924 2.22474 1.81107 2.22428 1.8129 2.22367L5.2649 1.31262L7.16141 5.59252C6.67633 6.07351 5.72678 7.01743 5.44709 7.31372C5.26032 7.51156 5.23392 7.81228 5.38346 8.03993C6.15647 9.21685 7.16629 10.4208 8.38471 11.6184C9.59717 12.8568 10.8461 13.9105 11.9965 14.6656C12.2185 14.8113 12.5105 14.7893 12.7083 14.6121C13.0173 14.335 13.9598 13.376 14.44 12.8848L18.7189 14.7932L17.8008 18.2405Z" fill="current-color"/>
<path id="Vector_2" d="M10 1.1937C14.8677 1.1937 18.828 5.14413 18.828 9.99981C18.828 10.3239 19.0903 10.5869 19.4138 10.5869C19.7374 10.5869 19.9997 10.3239 19.9997 9.99981C19.9997 4.49666 15.5139 0.0195312 10 0.0195312C9.67636 0.0195312 9.41406 0.282343 9.41406 0.606615C9.41406 0.930888 9.67636 1.1937 10 1.1937Z" fill="current-color"/>
<path id="Vector_3" d="M10 3.54184C13.5538 3.54184 16.4452 6.43874 16.4452 9.99962C16.4452 10.3237 16.7075 10.5867 17.0311 10.5867C17.3546 10.5867 17.617 10.3237 17.617 9.99962C17.617 5.79126 14.2 2.36768 10 2.36768C9.67636 2.36768 9.41406 2.63049 9.41406 2.95476C9.41406 3.27888 9.67636 3.54184 10 3.54184Z" fill="current-color"/>
<path id="Vector_4" d="M10 5.89048C12.2615 5.89048 14.1014 7.73398 14.1014 10.0001C14.1014 10.3242 14.3637 10.5872 14.6873 10.5872C15.011 10.5872 15.2733 10.3242 15.2733 10.0001C15.2733 7.08666 12.9077 4.71631 10 4.71631C9.67636 4.71631 9.41406 4.97927 9.41406 5.30339C9.41406 5.62766 9.67636 5.89048 10 5.89048Z" fill="current-color"/>
</g>
<defs>
<clipPath id="clip0_239_1174">
<rect width="20" height="20" fill="current-color"/>
</clipPath>
</defs>
</svg>
