<svg width="60" height="60" viewBox="0 0 60 60" fill="none" xmlns="http://www.w3.org/2000/svg">
<g id="facial-treatment 1" clip-path="url(#clip0_239_1083)">
<g id="025---Clean-Face">
<path id="Shape" d="M1.88912 27.5C1.88912 34.776 6.32712 36.663 8.43412 37.15C9.01947 39.1973 9.82413 41.1754 10.8341 43.05C9.78289 44.3543 8.17244 45.0787 6.49912 45C5.94684 45 5.49912 45.4477 5.49912 46C5.49912 46.5523 5.94684 47 6.49912 47C12.3991 47 12.4991 53.716 12.4991 54V54.015C12.5033 54.5673 12.9543 55.0117 13.5066 55.0075C14.0589 55.0034 14.5033 54.5523 14.4991 54C14.5407 52.3871 14.9955 50.8118 15.8201 49.425C18.5303 51.7635 21.9997 53.0344 25.5791 53C30.8011 53 35.1441 50.615 38.5041 45.921C39.459 46.0685 40.4345 46.0067 41.3631 45.74C42.8827 48.3748 46.0262 49.6036 48.9298 48.6977C51.8333 47.7918 53.7204 44.9935 53.4721 41.962C55.5804 42.2185 57.5796 40.9611 58.2614 38.9497C58.9433 36.9383 58.1208 34.7244 56.2911 33.646C56.8526 32.0402 56.1745 30.2635 54.6858 29.4401C53.1972 28.6168 51.3318 28.9867 50.27 30.3158C49.2082 31.6449 49.2593 33.546 50.3911 34.816C50.0042 35.3288 49.7339 35.9199 49.5991 36.548C48.7797 36.1874 47.8944 36.0007 46.9991 36C45.5791 36 46.0091 36.349 45.6921 35.748C47.4271 34.448 49.1491 32.015 49.1491 27.5C49.1491 24.933 48.6941 21.787 46.1621 21.427C49.7575 15.8561 51.1932 9.16341 50.1991 2.60801L49.7991 0.783012C49.697 0.323737 49.2886 -0.00225868 48.8181 1.17859e-05H2.18012C1.71152 9.2206e-05 1.30581 0.32557 1.20412 0.783012L0.784123 2.68301C-0.191972 9.21826 1.24985 15.8851 4.83912 21.433C2.33512 21.826 1.88912 24.956 1.88912 27.5ZM3.88912 27.5C3.88912 24.312 4.66212 23.623 4.89812 23.488C5.38912 23.209 6.29112 23.607 6.71812 23.9C6.75826 27.5859 7.13685 31.2604 7.84912 34.877C6.07612 34.143 3.88912 32.273 3.88912 27.5ZM13.4991 49.473C12.8719 48.0315 11.8152 46.8187 10.4731 46C11.8042 45.1684 12.8575 43.9594 13.4991 42.527C14.1264 43.9685 15.1831 45.1813 16.5251 46C15.193 46.8304 14.1393 48.0398 13.4991 49.473ZM25.5791 51C22.5134 51.0294 19.5392 49.9558 17.1991 47.975C18.1677 47.3078 19.3235 46.9663 20.4991 47C21.0514 47 21.4991 46.5523 21.4991 46C21.4991 45.4477 21.0514 45 20.4991 45C14.5991 45 14.4991 38.284 14.4991 38V37.985C14.495 37.4327 14.0439 36.9884 13.4916 36.9925C12.9393 36.9967 12.495 37.4477 12.4991 38C12.4708 38.9866 12.2976 39.9637 11.9851 40.9C9.36012 35.405 8.75612 29.11 8.69212 22.9C11.0934 18.538 14.069 14.5179 17.5391 10.947C19.9699 12.3837 22.7566 13.1057 25.5791 13.03C30.4431 13.03 33.5991 13.068 35.9461 13.69C38.4605 16.6323 40.6477 19.8391 42.4691 23.254C42.4577 26.3093 42.218 29.3594 41.7521 32.379C38.2444 31.1614 34.3966 32.8979 32.9891 36.3339C31.5816 39.7699 33.1052 43.7068 36.4591 45.3C33.5551 49.067 29.9071 51 25.5791 51ZM19.0241 9.50001C21.0056 7.63151 23.1755 5.97364 25.4991 4.55301C28.5349 6.43021 31.3153 8.69195 33.7711 11.282C27.3801 10.594 23.3421 11.894 19.0241 9.50001ZM34.4991 39C34.4991 36.2386 36.7377 34 39.4991 34C42.2606 34 44.4991 36.2386 44.4991 39C44.4991 41.7614 42.2606 44 39.4991 44C36.7391 43.9967 34.5024 41.7601 34.4991 39ZM52.9991 31C53.8276 31 54.4991 31.6716 54.4991 32.5C54.4991 33.3284 53.8276 34 52.9991 34C52.1707 34 51.4991 33.3284 51.4991 32.5C51.4991 31.6716 52.1707 31 52.9991 31ZM51.4991 37.5C51.4984 36.9008 51.7172 36.322 52.1141 35.873C53.1526 36.1631 54.2671 35.9402 55.1141 35.273C55.9235 35.6658 56.4573 36.4655 56.5096 37.3636C56.5618 38.2617 56.1243 39.1179 55.3659 39.6019C54.6075 40.0858 53.6467 40.1218 52.8541 39.696C52.5276 39.0147 52.0853 38.3952 51.5471 37.865C51.5216 37.7448 51.5056 37.6227 51.4991 37.5ZM51.4991 42.5C51.4939 44.4946 50.1763 46.2477 48.2618 46.8074C46.3474 47.367 44.2929 46.5997 43.2141 44.922C45.5494 43.4665 46.8082 40.7721 46.4261 38.047C47.708 37.8785 49.0002 38.2709 49.9718 39.1238C50.9434 39.9767 51.5001 41.2072 51.4991 42.5ZM47.1491 27.5C47.1491 30.584 46.2601 32.805 44.5141 34.127C44.2369 33.8419 43.9358 33.5809 43.6141 33.347C44.1507 30.2002 44.4326 27.0152 44.4571 23.823C44.9361 23.553 45.6821 23.223 46.1441 23.488C46.3771 23.622 47.1491 24.309 47.1491 27.5ZM48.0181 2.00001C49.3636 8.77735 47.8207 15.8087 43.7611 21.4C38.6121 12.259 31.0511 5.25701 25.0691 2.00001H48.0181ZM2.98212 2.00001H16.6211C14.3899 3.47786 12.3999 5.29082 10.7211 7.37501C10.3759 7.80635 10.4458 8.43583 10.8771 8.78101C11.3085 9.12619 11.9379 9.05635 12.2831 8.62501C14.5183 5.86492 17.334 3.631 20.5301 2.08201C21.546 2.48128 22.5403 2.93322 23.5091 3.43601C15.1151 8.84001 9.75412 16.913 7.23812 21.4C3.17286 15.8113 1.62972 8.77727 2.98212 2.00001Z" fill="current-color"/>
<path id="Shape_2" d="M13.9462 21.735C14.9889 21.2108 16.1979 21.1251 17.3042 21.497L21.1832 22.79C21.7078 22.9645 22.2746 22.6806 22.4492 22.156C22.6237 21.6313 22.3398 21.0645 21.8152 20.89L17.9362 19.6C16.3271 19.0594 14.5687 19.1844 13.0522 19.947C12.7297 20.105 12.5167 20.4238 12.4942 20.7822C12.4716 21.1406 12.643 21.4836 12.9432 21.6808C13.2433 21.8779 13.6262 21.899 13.9462 21.736V21.735Z" fill="current-color"/>
<path id="Shape_3" d="M29.4997 22.841C29.7327 22.841 29.4997 22.896 33.6997 21.497C34.8059 21.1241 36.0153 21.2098 37.0577 21.735C37.3777 21.898 37.7606 21.8769 38.0607 21.6798C38.3609 21.4826 38.5323 21.1396 38.5097 20.7812C38.4872 20.4228 38.2742 20.104 37.9517 19.9459C36.4349 19.1834 34.6762 19.0585 33.0667 19.599L29.1887 20.892C28.7239 21.0464 28.4393 21.5148 28.5165 21.9985C28.5937 22.4823 29.0099 22.8389 29.4997 22.841Z" fill="current-color"/>
<path id="Shape_4" d="M21.445 26.6789C21.2677 26.157 20.7014 25.877 20.179 26.0529C20.144 26.0639 16.734 27.1759 14.1 25.1999C13.7039 24.9047 13.1516 24.943 12.8 25.2899C12.4489 25.6532 11.9954 25.9009 11.5 25.9999C10.9477 25.9999 10.5 26.4476 10.5 26.9999C10.5 27.5522 10.9477 27.9999 11.5 27.9999C12.2467 27.9599 12.9642 27.6961 13.559 27.2429C13.71 27.3329 13.859 27.4129 14.013 27.4899C13.8789 27.6934 13.7043 27.867 13.5 27.9999C12.9477 27.9999 12.5 28.4476 12.5 28.9999C12.5 30.2289 14.347 30.6999 15.973 28.1809C17.5842 28.5101 19.2522 28.4293 20.824 27.9459C21.3445 27.7665 21.622 27.2002 21.445 26.6789Z" fill="current-color"/>
<path id="Shape_5" d="M36.8982 25.1999C34.2632 27.1759 30.8532 26.0649 30.8222 26.0539C30.3018 25.8817 29.7397 26.1606 29.562 26.6793C29.3844 27.1979 29.6575 27.7629 30.1742 27.9459C31.7459 28.43 33.4141 28.5109 35.0252 28.1809C35.5332 28.9699 36.4042 29.9999 37.4982 29.9999C38.0553 30.0027 38.5109 29.5569 38.5202 28.9999C38.5259 28.7367 38.4252 28.4822 38.241 28.294C38.0568 28.1059 37.8046 27.9999 37.5412 27.9999C37.3197 27.8727 37.1307 27.6957 36.9892 27.4829C37.1392 27.4059 37.2892 27.3279 37.4392 27.2379C38.0335 27.6929 38.751 27.9584 39.4982 27.9999C40.0505 27.9999 40.4982 27.5522 40.4982 26.9999C40.4982 26.4476 40.0505 25.9999 39.4982 25.9999C39.0056 25.9006 38.5547 25.6541 38.2052 25.2929C37.8534 24.9411 37.2964 24.9014 36.8982 25.1999Z" fill="current-color"/>
<path id="Shape_6" d="M21.9433 34.832C24.0947 36.2714 26.9018 36.2714 29.0533 34.832C29.3505 34.6337 29.5194 34.2919 29.4963 33.9353C29.4732 33.5788 29.2617 33.2616 28.9413 33.1033C28.621 32.9451 28.2405 32.9697 27.9433 33.168C26.4633 34.1571 24.5332 34.1571 23.0533 33.168C22.5938 32.8615 21.9728 32.9855 21.6663 33.445C21.3598 33.9045 21.4838 34.5255 21.9433 34.832Z" fill="current-color"/>
<path id="Shape_7" d="M30.2 39.6001C29.5265 39.4509 28.876 39.2121 28.266 38.8901C25.666 37.7071 25.349 37.7061 22.744 38.8901C22.134 39.2121 21.4835 39.4509 20.81 39.6001C20.4742 39.5737 20.1426 39.6879 19.8943 39.9154C19.6459 40.1429 19.5031 40.4633 19.5 40.8001C19.5 42.2111 22.325 44.0001 25.5 44.0001C28.675 44.0001 31.5 42.2101 31.5 40.8001C31.497 40.4651 31.3557 40.1462 31.1095 39.919C30.8633 39.6917 30.5342 39.5763 30.2 39.6001ZM22.38 41.2281C23.3809 40.7256 24.4251 40.3146 25.5 40.0001C26.5762 40.3153 27.6221 40.7263 28.625 41.2281C26.6687 42.257 24.3313 42.257 22.375 41.2281H22.38Z" fill="current-color"/>
<path id="Shape_8" d="M26.5 46H24.5C23.9477 46 23.5 46.4477 23.5 47C23.5 47.5523 23.9477 48 24.5 48H26.5C27.0523 48 27.5 47.5523 27.5 47C27.5 46.4477 27.0523 46 26.5 46Z" fill="current-color"/>
<path id="Oval" d="M8.5 12C9.05228 12 9.5 11.5523 9.5 11C9.5 10.4477 9.05228 10 8.5 10C7.94772 10 7.5 10.4477 7.5 11C7.5 11.5523 7.94772 12 8.5 12Z" fill="current-color"/>
<path id="Shape_9" d="M59.5 53C59.5 50.2386 57.2614 48 54.5 48C51.7386 48 49.5 50.2386 49.5 53C49.5 55.7614 51.7386 58 54.5 58C57.2601 57.9967 59.4967 55.7601 59.5 53ZM51.5 53C51.5 51.3431 52.8431 50 54.5 50C56.1569 50 57.5 51.3431 57.5 53C57.5 54.6569 56.1569 56 54.5 56C52.8431 56 51.5 54.6569 51.5 53Z" fill="current-color"/>
<path id="Shape_10" d="M46.5 53C46.5 51.3431 45.1569 50 43.5 50C41.8431 50 40.5 51.3431 40.5 53C40.5 54.6569 41.8431 56 43.5 56C45.1569 56 46.5 54.6569 46.5 53ZM42.5 53C42.5 52.4477 42.9477 52 43.5 52C44.0523 52 44.5 52.4477 44.5 53C44.5 53.5523 44.0523 54 43.5 54C42.9477 54 42.5 53.5523 42.5 53Z" fill="current-color"/>
<path id="Shape_11" d="M40.4997 36C39.4295 35.9684 38.3936 36.3797 37.6365 37.1368C36.8794 37.8939 36.4681 38.9297 36.4997 40C36.4997 40.5523 36.9475 41 37.4997 41C38.052 41 38.4997 40.5523 38.4997 40C38.4655 39.4587 38.666 38.9289 39.0501 38.546C39.4342 38.163 39.9646 37.9641 40.5057 38C41.058 37.9983 41.5044 37.5493 41.5027 36.997C41.5011 36.4447 41.052 35.9983 40.4997 36Z" fill="current-color"/>
<path id="Shape_12" d="M5.5 50C4.94772 50 4.5 50.4477 4.5 51V53C4.5 53.5523 4.94772 54 5.5 54C6.05228 54 6.5 53.5523 6.5 53V51C6.5 50.4477 6.05228 50 5.5 50Z" fill="current-color"/>
<path id="Shape_13" d="M4.5 59C4.5 59.5523 4.94772 60 5.5 60C6.05228 60 6.5 59.5523 6.5 59V57C6.5 56.4477 6.05228 56 5.5 56C4.94772 56 4.5 56.4477 4.5 57V59Z" fill="current-color"/>
<path id="Shape_14" d="M7.5 56H9.5C10.0523 56 10.5 55.5523 10.5 55C10.5 54.4477 10.0523 54 9.5 54H7.5C6.94772 54 6.5 54.4477 6.5 55C6.5 55.5523 6.94772 56 7.5 56Z" fill="current-color"/>
<path id="Shape_15" d="M3.5 54H1.5C0.947715 54 0.5 54.4477 0.5 55C0.5 55.5523 0.947715 56 1.5 56H3.5C4.05228 56 4.5 55.5523 4.5 55C4.5 54.4477 4.05228 54 3.5 54Z" fill="current-color"/>
</g>
</g>
<defs>
<clipPath id="clip0_239_1083">
<rect width="60" height="60" fill="current-color"/>
</clipPath>
</defs>
</svg>
