<svg width="60" height="60" viewBox="0 0 60 60" fill="none" xmlns="http://www.w3.org/2000/svg">
<g id="hair-wash-sink 1" clip-path="url(#clip0_239_1111)">
<path id="Vector" d="M50.4291 26.4155C48.0906 25.8273 44.9376 26.4166 43.1015 29.835C40.5216 34.6384 35.6235 37.5061 29.9993 37.5061C24.4964 37.5061 19.7141 34.698 16.8784 29.8014C16.2702 28.7524 15.6246 27.9598 14.9745 27.3642V13.3811C14.9745 10.3159 17.4668 7.82238 20.5302 7.82238C23.1905 7.82238 25.4192 9.70102 25.962 12.2009H25.1731C23.9305 12.2009 22.9197 13.212 22.9197 14.4548V17.1224C22.9197 19.8342 25.1267 22.0405 27.8395 22.0405H32.159C34.8699 22.0405 37.0755 19.8341 37.0755 17.1224V14.4548C37.0755 13.2121 36.066 12.2009 34.8255 12.2009H33.8567C33.2573 5.37328 27.5099 0 20.5304 0C17.0897 0 13.8156 1.3166 11.3113 3.70723C8.81687 6.08848 7.34723 9.28172 7.17309 12.699C7.17297 12.7007 7.17297 12.7021 7.17285 12.7037C7.16078 12.9543 7.1548 13.1757 7.1548 13.3811C7.1548 14.0329 7.6832 14.5613 8.335 14.5613C8.9868 14.5613 9.51519 14.0329 9.51519 13.3811C9.51519 13.215 9.52012 13.0318 9.53031 12.8211C9.53031 12.821 9.53031 12.8209 9.53031 12.8208C9.82844 6.9552 14.6602 2.36051 20.5304 2.36051C26.2074 2.36051 30.8949 6.67699 31.4856 12.2009H28.3615C27.7899 8.39203 24.4961 5.46188 20.5304 5.46188C16.1655 5.46188 12.6142 9.01441 12.6142 13.3811V25.9562C11.3204 25.5414 10.1848 25.692 9.51519 25.8639V23.3245C9.51519 22.6727 8.9868 22.1443 8.335 22.1443C7.6832 22.1443 7.1548 22.6727 7.1548 23.3245V27.0585C5.59105 28.3064 4.56836 30.2527 4.56836 32.2709C4.56836 38.0034 7.24211 43.3788 12.0972 47.4069C13.4556 48.534 14.9402 49.5171 16.5238 50.3479V53.8982C16.5238 57.2627 19.2602 60.0001 22.6236 60.0001H37.3752C40.7386 60.0001 43.475 57.2629 43.475 53.8982V50.3472C45.0579 49.5165 46.5421 48.5338 47.9002 47.407C52.756 43.3786 55.4303 38.0032 55.4303 32.2709C55.4304 29.607 53.327 27.1445 50.4291 26.4155ZM34.7152 17.1223C34.7152 18.5326 33.5686 19.68 32.1592 19.68H27.8397C26.4284 19.68 25.2803 18.5326 25.2803 17.1223V14.5613H34.7153V17.1223H34.7152ZM41.1146 53.898C41.1146 55.9611 39.4371 57.6395 37.3752 57.6395H22.6236C20.5616 57.6395 18.8842 55.9611 18.8842 53.898V51.4419C22.3047 52.8343 26.0853 53.5712 29.9995 53.5712C33.9134 53.5712 37.694 52.8342 41.1146 51.4414V53.898ZM29.9995 51.2107C17.2783 51.2107 6.92887 42.7144 6.92887 32.2707C6.92887 30.4691 8.33828 28.6241 10.0705 28.1583C10.3512 28.0828 10.6302 28.0454 10.9069 28.0454C12.3498 28.0454 13.7212 29.0618 14.8363 30.985C18.105 36.6293 23.6318 39.8666 29.9995 39.8666C36.5076 39.8666 42.1829 36.534 45.181 30.9519C46.6425 28.2307 48.9352 28.4735 49.8532 28.7047C51.6871 29.166 53.0699 30.699 53.0699 32.2709C53.0699 42.7144 42.7205 51.2107 29.9995 51.2107Z" fill="current-color"/>
<path id="Vector_2" d="M28.8203 26.0987V29.6532C28.8203 30.305 29.3487 30.8334 30.0005 30.8334C30.6523 30.8334 31.1807 30.305 31.1807 29.6532V26.0987C31.1807 25.4469 30.6523 24.9185 30.0005 24.9185C29.3487 24.9185 28.8203 25.4469 28.8203 26.0987Z" fill="current-color"/>
<path id="Vector_3" d="M22.9199 26.0987V29.6532C22.9199 30.305 23.4483 30.8334 24.1001 30.8334C24.7519 30.8334 25.2803 30.305 25.2803 29.6532V26.0987C25.2803 25.4469 24.7519 24.9185 24.1001 24.9185C23.4483 24.9185 22.9199 25.4469 22.9199 26.0987Z" fill="current-color"/>
<path id="Vector_4" d="M34.7148 26.0987V29.6532C34.7148 30.305 35.2432 30.8334 35.895 30.8334C36.5468 30.8334 37.0752 30.305 37.0752 29.6532V26.0987C37.0752 25.4469 36.5468 24.9185 35.895 24.9185C35.2432 24.9185 34.7148 25.4469 34.7148 26.0987Z" fill="current-color"/>
<path id="Vector_5" d="M34.1432 43.3013H25.854C25.2022 43.3013 24.6738 43.8297 24.6738 44.4815C24.6738 45.1333 25.2022 45.6617 25.854 45.6617H34.1432C34.795 45.6617 35.3234 45.1333 35.3234 44.4815C35.3234 43.8297 34.795 43.3013 34.1432 43.3013Z" fill="current-color"/>
<path id="Vector_6" d="M8.33644 19.2363C8.98824 19.2363 9.51664 18.7079 9.51664 18.0561V18.0327C9.51664 17.3809 8.98824 16.8525 8.33644 16.8525C7.68465 16.8525 7.15625 17.3809 7.15625 18.0327V18.0561C7.15625 18.7077 7.68465 19.2363 8.33644 19.2363Z" fill="current-color"/>
</g>
<defs>
<clipPath id="clip0_239_1111">
<rect width="60" height="60" fill="white"/>
</clipPath>
</defs>
</svg>
