<svg width="50" height="50" viewBox="0 0 50 50" fill="none" xmlns="http://www.w3.org/2000/svg">
<g id="instagram 1" clip-path="url(#clip0_239_656)">
<g id="Group">
<g id="Group_2">
<path id="Vector" d="M37.4991 0H12.4997C5.62547 0 0 5.62547 0 12.4997V37.5003C0 44.3727 5.62547 50 12.4997 50H37.4991C44.3733 50 49.9988 44.3727 49.9988 37.5003V12.4997C49.9988 5.62547 44.3733 0 37.4991 0ZM45.832 37.5003C45.832 42.0939 42.0953 45.8332 37.4991 45.8332H12.4997C7.90545 45.8332 4.16677 42.0939 4.16677 37.5003V12.4997C4.16677 7.90484 7.90545 4.16677 12.4997 4.16677H37.4991C42.0953 4.16677 45.832 7.90484 45.832 12.4997V37.5003Z" fill="current-color"/>
</g>
</g>
<g id="Group_3">
<g id="Group_4">
<path id="Vector_2" d="M38.5429 14.5827C40.2687 14.5827 41.6678 13.1837 41.6678 11.4578C41.6678 9.73196 40.2687 8.33289 38.5429 8.33289C36.817 8.33289 35.418 9.73196 35.418 11.4578C35.418 13.1837 36.817 14.5827 38.5429 14.5827Z" fill="current-color"/>
</g>
</g>
<g id="Group_5">
<g id="Group_6">
<path id="Vector_3" d="M24.9997 12.4998C18.0948 12.4998 12.5 18.0952 12.5 24.9995C12.5 31.9011 18.0948 37.5004 24.9997 37.5004C31.9026 37.5004 37.4994 31.9011 37.4994 24.9995C37.4994 18.0952 31.9026 12.4998 24.9997 12.4998ZM24.9997 33.3336C20.3979 33.3336 16.6668 29.6025 16.6668 24.9995C16.6668 20.3964 20.3979 16.6665 24.9997 16.6665C29.6015 16.6665 33.3326 20.3964 33.3326 24.9995C33.3326 29.6025 29.6015 33.3336 24.9997 33.3336Z" fill="current-color"/>
</g>
</g>
</g>
<defs>
<clipPath id="clip0_239_656">
<rect width="50" height="50" fill="current-color"/>
</clipPath>
</defs>
</svg>
