<svg width="152" height="40" viewBox="0 0 152 40" fill="none" xmlns="http://www.w3.org/2000/svg">
<path d="M66.85 16.72C68.33 16.94 69.5 17.51 70.36 18.43C71.24 19.35 71.68 20.57 71.68 22.09C71.68 24.07 70.94 25.55 69.46 26.53C68 27.51 65.89 28 63.13 28H59.8C59.14 28 58.6 27.82 58.18 27.46C57.76 27.1 57.55 26.61 57.55 25.99V11.35C57.55 9.83 57.36 8.57 56.98 7.57C58.22 6.97 60.03 6.67 62.41 6.67C65.11 6.67 67.16 7.07 68.56 7.87C69.96 8.67 70.66 9.95 70.66 11.71C70.66 12.95 70.32 14.02 69.64 14.92C68.98 15.8 68.05 16.4 66.85 16.72ZM61.48 8.05V16.21H63.04C64.2 16.23 65.06 15.87 65.62 15.13C66.2 14.39 66.49 13.36 66.49 12.04C66.49 10.76 66.18 9.78 65.56 9.1C64.94 8.4 63.91 8.05 62.47 8.05H61.48ZM62.98 26.62C64.5 26.62 65.61 26.22 66.31 25.42C67.03 24.62 67.39 23.53 67.39 22.15C67.39 20.45 67.01 19.27 66.25 18.61C65.51 17.93 64.44 17.59 63.04 17.59H61.48V26.62H62.98ZM89.3683 25C89.6283 25.38 89.7583 25.79 89.7583 26.23C89.7583 26.81 89.5083 27.3 89.0083 27.7C88.5083 28.1 87.8383 28.3 86.9983 28.3C86.0383 28.3 85.2883 27.99 84.7483 27.37C84.2083 26.73 83.8983 25.7 83.8183 24.28C83.2583 25.5 82.4783 26.48 81.4783 27.22C80.4783 27.94 79.3183 28.3 77.9983 28.3C76.8183 28.3 75.8683 27.99 75.1483 27.37C74.4283 26.75 74.0683 25.88 74.0683 24.76C74.0683 23.48 74.5583 22.43 75.5383 21.61C76.5183 20.79 77.7583 20.16 79.2583 19.72C80.5583 19.36 81.9883 19.16 83.5483 19.12V18.37C83.5483 16.67 83.3483 15.42 82.9483 14.62C82.5483 13.82 81.8583 13.42 80.8783 13.42C80.2383 13.42 79.7183 13.61 79.3183 13.99C78.9183 14.35 78.7183 14.91 78.7183 15.67C78.7183 16.73 79.0783 17.47 79.7983 17.89C79.5783 18.11 79.2783 18.28 78.8983 18.4C78.5383 18.52 78.1483 18.58 77.7283 18.58C76.8083 18.58 76.0783 18.32 75.5383 17.8C75.0183 17.28 74.7583 16.62 74.7583 15.82C74.7583 14.64 75.3283 13.73 76.4683 13.09C77.6083 12.43 79.1583 12.1 81.1183 12.1C83.3383 12.1 84.9583 12.61 85.9783 13.63C87.0183 14.65 87.5383 16.31 87.5383 18.61V23.83C87.5383 24.89 87.8683 25.42 88.5283 25.42C88.6683 25.42 88.8183 25.39 88.9783 25.33C89.1383 25.25 89.2683 25.14 89.3683 25ZM79.7983 25.78C80.3783 25.78 80.9683 25.54 81.5683 25.06C82.1683 24.58 82.6683 23.93 83.0683 23.11C83.4683 22.27 83.6683 21.36 83.6683 20.38C82.0883 20.38 80.9083 20.6 80.1283 21.04C79.5683 21.32 79.1183 21.7 78.7783 22.18C78.4583 22.66 78.2983 23.21 78.2983 23.83C78.2983 24.37 78.4183 24.83 78.6583 25.21C78.9183 25.59 79.2983 25.78 79.7983 25.78ZM99.7312 12.1C100.871 12.1 101.791 12.41 102.491 13.03C103.211 13.63 103.571 14.46 103.571 15.52C103.571 16.28 103.341 16.91 102.881 17.41C102.421 17.91 101.841 18.17 101.141 18.19C100.341 18.19 99.7512 17.98 99.3712 17.56C99.5912 17.2 99.7412 16.87 99.8212 16.57C99.9012 16.27 99.9412 15.92 99.9412 15.52C99.9412 15 99.8312 14.61 99.6112 14.35C99.3912 14.07 99.0612 13.93 98.6212 13.93C97.8812 13.93 97.3012 14.52 96.8812 15.7C96.4612 16.86 96.2512 18.6 96.2512 20.92C96.2512 23.06 96.2812 24.51 96.3412 25.27C96.4012 26.01 96.5812 26.74 96.8812 27.46C96.6612 27.68 96.3612 27.87 95.9812 28.03C95.6012 28.21 95.1612 28.31 94.6612 28.33C94.0412 28.33 93.5112 28.13 93.0712 27.73C92.6312 27.33 92.4112 26.79 92.4112 26.11V16.6C92.4112 16.04 92.3412 15.64 92.2012 15.4C92.0812 15.14 91.8812 15.01 91.6012 15.01C91.2212 15.01 90.9612 15.13 90.8212 15.37C90.5812 14.97 90.4612 14.56 90.4612 14.14C90.4612 13.54 90.6612 13.06 91.0612 12.7C91.4812 12.32 92.0612 12.13 92.8012 12.13C93.6812 12.13 94.3812 12.4 94.9012 12.94C95.4212 13.48 95.7212 14.29 95.8012 15.37C96.4812 13.19 97.7912 12.1 99.7312 12.1ZM112.264 28.42C110.964 28.42 109.734 28.25 108.574 27.91C107.414 27.55 106.484 27.06 105.784 26.44V8.05C105.784 7.43 105.974 6.94 106.354 6.58C106.754 6.2 107.254 6.01 107.854 6.01C108.374 6.01 108.834 6.1 109.234 6.28C109.654 6.46 109.994 6.66 110.254 6.88C109.834 8.56 109.624 10.63 109.624 13.09V15.22C109.984 14.26 110.554 13.5 111.334 12.94C112.134 12.38 113.094 12.1 114.214 12.1C115.894 12.1 117.194 12.72 118.114 13.96C119.054 15.18 119.524 17.09 119.524 19.69C119.524 22.47 118.934 24.62 117.754 26.14C116.594 27.66 114.764 28.42 112.264 28.42ZM111.994 26.86C113.314 26.84 114.204 26.2 114.664 24.94C115.144 23.68 115.384 21.93 115.384 19.69C115.384 17.75 115.224 16.34 114.904 15.46C114.584 14.58 114.054 14.14 113.314 14.14C112.134 14.14 111.224 14.77 110.584 16.03C109.964 17.27 109.654 18.8 109.654 20.62V26.14C109.934 26.36 110.284 26.54 110.704 26.68C111.144 26.8 111.574 26.86 111.994 26.86ZM134.636 23.68C134.956 23.82 135.116 24.09 135.116 24.49C135.116 24.75 135.046 25.05 134.906 25.39C134.526 26.35 133.836 27.1 132.836 27.64C131.836 28.16 130.626 28.42 129.206 28.42C126.886 28.42 125.046 27.71 123.686 26.29C122.326 24.85 121.646 22.83 121.646 20.23C121.646 17.69 122.306 15.7 123.626 14.26C124.946 12.82 126.826 12.1 129.266 12.1C131.046 12.1 132.506 12.5 133.646 13.3C134.786 14.08 135.356 15.19 135.356 16.63C135.356 18.09 134.766 19.22 133.586 20.02C132.406 20.82 130.826 21.22 128.846 21.22C127.566 21.22 126.576 21.18 125.876 21.1C126.016 22.84 126.456 24.09 127.196 24.85C127.956 25.61 128.996 25.99 130.316 25.99C131.376 25.99 132.276 25.78 133.016 25.36C133.756 24.94 134.296 24.38 134.636 23.68ZM129.116 13.45C128.076 13.45 127.266 14.01 126.686 15.13C126.106 16.23 125.816 17.76 125.816 19.72V19.75L126.836 19.78C128.076 19.78 129.106 19.52 129.926 19C130.766 18.48 131.186 17.48 131.186 16C131.186 14.3 130.496 13.45 129.116 13.45ZM150.487 24.19C150.827 24.33 151.117 24.56 151.357 24.88C151.597 25.2 151.717 25.58 151.717 26.02C151.717 26.66 151.447 27.23 150.907 27.73C150.387 28.21 149.687 28.45 148.807 28.45C148.207 28.45 147.687 28.32 147.247 28.06C146.827 27.8 146.457 27.44 146.137 26.98C145.817 26.5 145.427 25.82 144.967 24.94L143.737 22.72L141.127 27.28C140.687 28.04 140.037 28.42 139.177 28.42C138.597 28.42 138.107 28.24 137.707 27.88C137.327 27.5 137.097 26.9 137.017 26.08C137.717 25.9 138.317 25.61 138.817 25.21C139.317 24.81 139.767 24.29 140.167 23.65L142.417 20.35L140.257 16.63C139.857 15.91 139.467 15.55 139.087 15.55C138.867 15.55 138.667 15.64 138.487 15.82C138.307 15.98 138.187 16.17 138.127 16.39C137.767 16.21 137.477 15.97 137.257 15.67C137.037 15.35 136.927 14.98 136.927 14.56C136.927 13.9 137.187 13.33 137.707 12.85C138.227 12.35 138.977 12.1 139.957 12.1C140.557 12.1 141.047 12.21 141.427 12.43C141.807 12.65 142.147 12.99 142.447 13.45C142.767 13.91 143.187 14.63 143.707 15.61L144.697 17.53L147.127 13.3C147.567 12.5 148.237 12.1 149.137 12.1C149.797 12.1 150.317 12.3 150.697 12.7C151.077 13.08 151.307 13.68 151.387 14.5C150.687 14.68 150.097 14.97 149.617 15.37C149.157 15.77 148.687 16.3 148.207 16.96L146.047 19.96L148.387 23.95C148.567 24.29 148.767 24.55 148.987 24.73C149.227 24.91 149.437 25 149.617 25C149.777 25 149.947 24.92 150.127 24.76C150.327 24.58 150.447 24.39 150.487 24.19Z" fill="white"/>
<path fill-rule="evenodd" clip-rule="evenodd" d="M19.9993 36.3604C29.0099 36.3604 36.395 29.0105 36.395 19.9646C36.395 10.954 29.0452 3.56885 19.9993 3.56885C10.9887 3.56885 3.60352 10.9187 3.60352 19.9646C3.60352 29.0105 10.9887 36.3604 19.9993 36.3604Z" fill="#B48E40"/>
<path fill-rule="evenodd" clip-rule="evenodd" d="M23.3566 12.7913C23.3566 12.5793 23.1446 12.438 22.8619 12.438C22.5792 12.438 22.3672 12.6147 22.3672 12.7913L22.5439 36.1482C22.8619 36.1129 23.2152 36.0422 23.5333 35.9716L23.3566 12.7913Z" fill="white"/>
<path fill-rule="evenodd" clip-rule="evenodd" d="M29.9289 13.1447C30.2115 13.1447 30.4235 12.968 30.4235 12.7913C30.4235 12.5793 30.2115 12.438 29.9289 12.438L22.8971 12.4733C22.6144 12.4733 22.4023 12.65 22.4023 12.8267C22.4023 13.0387 22.6144 13.18 22.8971 13.18L29.9289 13.1447Z" fill="white"/>
<path fill-rule="evenodd" clip-rule="evenodd" d="M30.0714 30.0705C30.3541 30.0705 30.5661 29.8938 30.5661 29.7171C30.5661 29.5051 30.3541 29.3638 30.0714 29.3638L23.0396 29.3991C22.7569 29.3991 22.5449 29.5758 22.5449 29.7525C22.5449 29.9645 22.7569 30.1058 23.0396 30.1058L30.0714 30.0705Z" fill="white"/>
<path fill-rule="evenodd" clip-rule="evenodd" d="M29.8583 28.7987C29.9997 28.7987 30.1057 28.728 30.1057 28.622C30.1057 28.516 29.9997 28.4453 29.8583 28.4453L23.0032 28.4807C22.8619 28.4807 22.7559 28.5513 22.7559 28.6573C22.7559 28.7633 22.8619 28.834 23.0032 28.834L29.8583 28.7987Z" fill="white"/>
<path fill-rule="evenodd" clip-rule="evenodd" d="M29.8583 27.8797C29.9997 27.8797 30.1057 27.8091 30.1057 27.703C30.1057 27.597 29.9997 27.5264 29.8583 27.5264L23.0032 27.5617C22.8619 27.5617 22.7559 27.6324 22.7559 27.7384C22.7559 27.8444 22.8619 27.9151 23.0032 27.9151L29.8583 27.8797Z" fill="white"/>
<path fill-rule="evenodd" clip-rule="evenodd" d="M29.8583 26.9613C29.9997 26.9613 30.1057 26.8906 30.1057 26.7846C30.1057 26.6786 29.9997 26.6079 29.8583 26.6079L23.0032 26.6432C22.8619 26.6432 22.7559 26.7139 22.7559 26.8199C22.7559 26.9259 22.8619 26.9966 23.0032 26.9966L29.8583 26.9613Z" fill="white"/>
<path fill-rule="evenodd" clip-rule="evenodd" d="M29.8583 26.0423C29.9997 26.0423 30.1057 25.9717 30.1057 25.8656C30.1057 25.7596 29.9997 25.689 29.8583 25.689L23.0032 25.7243C22.8619 25.7243 22.7559 25.795 22.7559 25.901C22.7559 26.007 22.8619 26.0777 23.0032 26.0777L29.8583 26.0423Z" fill="white"/>
<path fill-rule="evenodd" clip-rule="evenodd" d="M29.8583 25.1239C29.9997 25.1239 30.1057 25.0532 30.1057 24.9472C30.1057 24.8412 29.9997 24.7705 29.8583 24.7705L23.0032 24.8058C22.8619 24.8058 22.7559 24.8765 22.7559 24.9825C22.7559 25.0885 22.8619 25.1592 23.0032 25.1592L29.8583 25.1239Z" fill="white"/>
<path fill-rule="evenodd" clip-rule="evenodd" d="M29.8232 24.2049C29.9645 24.2049 30.0705 24.1342 30.0705 24.0282C30.0705 23.9222 29.9645 23.8516 29.8232 23.8516L22.9681 23.8869C22.8267 23.8869 22.7207 23.9576 22.7207 24.0636C22.7207 24.1696 22.8267 24.2403 22.9681 24.2403L29.8232 24.2049Z" fill="white"/>
<path fill-rule="evenodd" clip-rule="evenodd" d="M29.8232 23.286C29.9645 23.286 30.0705 23.2153 30.0705 23.1093C30.0705 23.0033 29.9645 22.9326 29.8232 22.9326L22.9681 22.968C22.8267 22.968 22.7207 23.0386 22.7207 23.1446C22.7207 23.2506 22.8267 23.3213 22.9681 23.3213L29.8232 23.286Z" fill="white"/>
<path fill-rule="evenodd" clip-rule="evenodd" d="M29.8232 22.3324C29.9645 22.3324 30.0705 22.2617 30.0705 22.1557C30.0705 22.0497 29.9645 21.979 29.8232 21.979L22.9681 22.0143C22.8267 22.0143 22.7207 22.085 22.7207 22.191C22.7207 22.297 22.8267 22.3677 22.9681 22.3677L29.8232 22.3324Z" fill="white"/>
<path fill-rule="evenodd" clip-rule="evenodd" d="M29.8232 21.4134C29.9645 21.4134 30.0705 21.3427 30.0705 21.2367C30.0705 21.1307 29.9645 21.0601 29.8232 21.0601L22.9681 21.0954C22.8267 21.0954 22.7207 21.1661 22.7207 21.2721C22.7207 21.3781 22.8267 21.4488 22.9681 21.4488L29.8232 21.4134Z" fill="white"/>
<path fill-rule="evenodd" clip-rule="evenodd" d="M29.8232 20.495C29.9645 20.495 30.0705 20.4243 30.0705 20.3183C30.0705 20.2123 29.9645 20.1416 29.8232 20.1416L22.9681 20.1769C22.8267 20.1769 22.7207 20.2476 22.7207 20.3536C22.7207 20.4596 22.8267 20.5303 22.9681 20.5303L29.8232 20.495Z" fill="white"/>
<path fill-rule="evenodd" clip-rule="evenodd" d="M29.788 19.576C29.9294 19.576 30.0354 19.5053 30.0354 19.3993C30.0354 19.2933 29.9294 19.2227 29.788 19.2227L22.9329 19.258C22.7915 19.258 22.6855 19.3287 22.6855 19.4347C22.6855 19.5407 22.7915 19.6114 22.9329 19.6114L29.788 19.576Z" fill="white"/>
<path fill-rule="evenodd" clip-rule="evenodd" d="M29.788 18.6571C29.9294 18.6571 30.0354 18.5864 30.0354 18.4804C30.0354 18.3744 29.9294 18.3037 29.788 18.3037L22.9329 18.339C22.7915 18.339 22.6855 18.4097 22.6855 18.5157C22.6855 18.6217 22.7915 18.6924 22.9329 18.6924L29.788 18.6571Z" fill="white"/>
<path fill-rule="evenodd" clip-rule="evenodd" d="M29.788 17.7386C29.9294 17.7386 30.0354 17.6679 30.0354 17.5619C30.0354 17.4559 29.9294 17.3853 29.788 17.3853L22.9329 17.4206C22.7915 17.4206 22.6855 17.4913 22.6855 17.5973C22.6855 17.7033 22.7915 17.7739 22.9329 17.7739L29.788 17.7386Z" fill="white"/>
<path fill-rule="evenodd" clip-rule="evenodd" d="M29.788 16.8197C29.9294 16.8197 30.0354 16.749 30.0354 16.643C30.0354 16.537 29.9294 16.4663 29.788 16.4663L22.9329 16.5016C22.7915 16.5016 22.6855 16.5723 22.6855 16.6783C22.6855 16.7843 22.7915 16.855 22.9329 16.855L29.788 16.8197Z" fill="white"/>
<path fill-rule="evenodd" clip-rule="evenodd" d="M29.7529 15.9012C29.8942 15.9012 30.0002 15.8305 30.0002 15.7245C30.0002 15.6185 29.8942 15.5479 29.7529 15.5479L22.8977 15.5832C22.7564 15.5832 22.6504 15.6539 22.6504 15.7599C22.6504 15.8659 22.7564 15.9365 22.8977 15.9365L29.7529 15.9012Z" fill="white"/>
<path fill-rule="evenodd" clip-rule="evenodd" d="M29.7529 14.9823C29.8942 14.9823 30.0002 14.9116 30.0002 14.8056C30.0002 14.6996 29.8942 14.6289 29.7529 14.6289L22.8977 14.6642C22.7564 14.6642 22.6504 14.7349 22.6504 14.8409C22.6504 14.9469 22.7564 15.0176 22.8977 15.0176L29.7529 14.9823Z" fill="white"/>
<path fill-rule="evenodd" clip-rule="evenodd" d="M29.7529 14.0638C29.8942 14.0638 30.0002 13.9931 30.0002 13.8871C30.0002 13.7811 29.8942 13.7104 29.7529 13.7104L22.8977 13.7458C22.7564 13.7458 22.6504 13.8164 22.6504 13.9225C22.6504 14.0285 22.7564 14.0991 22.8977 14.0991L29.7529 14.0638Z" fill="white"/>
<path fill-rule="evenodd" clip-rule="evenodd" d="M10.459 33.1801C17.5261 14.0989 20.3176 6.60772 21.413 3.63952C21.0597 3.60419 20.671 3.60418 20.3176 3.56885C19.2929 5.68899 17.6675 8.83386 16.5014 9.71726C14.6993 11.06 13.9572 11.4487 13.9572 11.4487L10.459 33.1801ZM15.5473 12.9328C16.1127 12.9328 16.5721 13.3922 16.5721 13.9575C16.5721 14.5229 16.1127 14.9469 15.5473 14.9469C14.982 14.9469 14.5579 14.4876 14.5579 13.9575C14.5226 13.3922 14.982 12.9328 15.5473 12.9328Z" fill="white"/>
<path fill-rule="evenodd" clip-rule="evenodd" d="M20.6715 33.1802C15.2298 18.5159 12.297 10.6714 10.7422 6.46648C11.0955 6.21913 11.4842 5.97178 11.8729 5.75977C12.7917 7.45588 13.8164 9.15199 14.6291 9.75269C16.4312 11.0954 17.1733 11.4841 17.1733 11.4841L20.6715 33.1802ZM15.5479 12.9329C14.9825 12.9329 14.5585 13.3923 14.5585 13.9576C14.5585 14.523 15.0178 14.947 15.5479 14.947C16.1132 14.947 16.5726 14.4877 16.5726 13.9576C16.5372 13.3923 16.1132 12.9329 15.5479 12.9329Z" fill="white"/>
<path fill-rule="evenodd" clip-rule="evenodd" d="M20 2.26148C15.1237 2.26148 10.6714 4.24028 7.45582 7.45583C4.24027 10.6714 2.26147 15.0883 2.26147 20C2.26147 24.8763 4.24027 29.3286 7.45582 32.5442C10.6714 35.7597 15.0883 37.7385 20 37.7385C24.8763 37.7385 29.3286 35.7597 32.5442 32.5442C35.7597 29.3286 37.7385 24.9117 37.7385 20C37.7385 15.1237 35.7597 10.6714 32.5442 7.45583C29.3286 4.24028 24.9116 2.26148 20 2.26148ZM5.86572 5.86573C9.46995 2.26149 14.4876 0 20 0C25.5124 0 30.4947 2.22615 34.1343 5.86573C37.7385 9.46996 40 14.4876 40 20C40 25.5124 37.7738 30.4947 34.1343 34.1343C30.53 37.7385 25.5124 40 20 40C14.4876 40 9.50529 37.7738 5.86572 34.1343C2.26148 30.53 0 25.5124 0 20C0.0353357 14.4523 2.26148 9.46996 5.86572 5.86573Z" fill="#B48E40"/>
</svg>
