<svg width="40" height="40" viewBox="0 0 40 40" fill="none" xmlns="http://www.w3.org/2000/svg">
<g id="Icon">
<path id="Vector" fill-rule="evenodd" clip-rule="evenodd" d="M19.9993 36.3604C29.0099 36.3604 36.395 29.0105 36.395 19.9646C36.395 10.954 29.0452 3.56885 19.9993 3.56885C10.9887 3.56885 3.60352 10.9187 3.60352 19.9646C3.60352 29.0105 10.9887 36.3604 19.9993 36.3604Z" fill="#B48E40"/>
<path id="Vector_2" fill-rule="evenodd" clip-rule="evenodd" d="M23.3566 12.7913C23.3566 12.5793 23.1446 12.438 22.8619 12.438C22.5792 12.438 22.3672 12.6147 22.3672 12.7913L22.5439 36.1482C22.8619 36.1129 23.2152 36.0422 23.5333 35.9716L23.3566 12.7913Z" fill="white"/>
<path id="Vector_3" fill-rule="evenodd" clip-rule="evenodd" d="M29.9289 13.1447C30.2115 13.1447 30.4235 12.968 30.4235 12.7913C30.4235 12.5793 30.2115 12.438 29.9289 12.438L22.8971 12.4733C22.6144 12.4733 22.4023 12.65 22.4023 12.8267C22.4023 13.0387 22.6144 13.18 22.8971 13.18L29.9289 13.1447Z" fill="white"/>
<path id="Vector_4" fill-rule="evenodd" clip-rule="evenodd" d="M30.0714 30.0705C30.3541 30.0705 30.5661 29.8938 30.5661 29.7171C30.5661 29.5051 30.3541 29.3638 30.0714 29.3638L23.0396 29.3991C22.7569 29.3991 22.5449 29.5758 22.5449 29.7525C22.5449 29.9645 22.7569 30.1058 23.0396 30.1058L30.0714 30.0705Z" fill="white"/>
<path id="Vector_5" fill-rule="evenodd" clip-rule="evenodd" d="M29.8583 28.7987C29.9997 28.7987 30.1057 28.728 30.1057 28.622C30.1057 28.516 29.9997 28.4453 29.8583 28.4453L23.0032 28.4807C22.8619 28.4807 22.7559 28.5513 22.7559 28.6573C22.7559 28.7633 22.8619 28.834 23.0032 28.834L29.8583 28.7987Z" fill="white"/>
<path id="Vector_6" fill-rule="evenodd" clip-rule="evenodd" d="M29.8583 27.8797C29.9997 27.8797 30.1057 27.8091 30.1057 27.703C30.1057 27.597 29.9997 27.5264 29.8583 27.5264L23.0032 27.5617C22.8619 27.5617 22.7559 27.6324 22.7559 27.7384C22.7559 27.8444 22.8619 27.9151 23.0032 27.9151L29.8583 27.8797Z" fill="white"/>
<path id="Vector_7" fill-rule="evenodd" clip-rule="evenodd" d="M29.8583 26.9613C29.9997 26.9613 30.1057 26.8906 30.1057 26.7846C30.1057 26.6786 29.9997 26.6079 29.8583 26.6079L23.0032 26.6432C22.8619 26.6432 22.7559 26.7139 22.7559 26.8199C22.7559 26.9259 22.8619 26.9966 23.0032 26.9966L29.8583 26.9613Z" fill="white"/>
<path id="Vector_8" fill-rule="evenodd" clip-rule="evenodd" d="M29.8583 26.0423C29.9997 26.0423 30.1057 25.9717 30.1057 25.8656C30.1057 25.7596 29.9997 25.689 29.8583 25.689L23.0032 25.7243C22.8619 25.7243 22.7559 25.795 22.7559 25.901C22.7559 26.007 22.8619 26.0777 23.0032 26.0777L29.8583 26.0423Z" fill="white"/>
<path id="Vector_9" fill-rule="evenodd" clip-rule="evenodd" d="M29.8583 25.1239C29.9997 25.1239 30.1057 25.0532 30.1057 24.9472C30.1057 24.8412 29.9997 24.7705 29.8583 24.7705L23.0032 24.8058C22.8619 24.8058 22.7559 24.8765 22.7559 24.9825C22.7559 25.0885 22.8619 25.1592 23.0032 25.1592L29.8583 25.1239Z" fill="white"/>
<path id="Vector_10" fill-rule="evenodd" clip-rule="evenodd" d="M29.8232 24.2049C29.9645 24.2049 30.0705 24.1342 30.0705 24.0282C30.0705 23.9222 29.9645 23.8516 29.8232 23.8516L22.9681 23.8869C22.8267 23.8869 22.7207 23.9576 22.7207 24.0636C22.7207 24.1696 22.8267 24.2403 22.9681 24.2403L29.8232 24.2049Z" fill="white"/>
<path id="Vector_11" fill-rule="evenodd" clip-rule="evenodd" d="M29.8232 23.286C29.9645 23.286 30.0705 23.2153 30.0705 23.1093C30.0705 23.0033 29.9645 22.9326 29.8232 22.9326L22.9681 22.968C22.8267 22.968 22.7207 23.0386 22.7207 23.1446C22.7207 23.2506 22.8267 23.3213 22.9681 23.3213L29.8232 23.286Z" fill="white"/>
<path id="Vector_12" fill-rule="evenodd" clip-rule="evenodd" d="M29.8232 22.3324C29.9645 22.3324 30.0705 22.2617 30.0705 22.1557C30.0705 22.0497 29.9645 21.979 29.8232 21.979L22.9681 22.0143C22.8267 22.0143 22.7207 22.085 22.7207 22.191C22.7207 22.297 22.8267 22.3677 22.9681 22.3677L29.8232 22.3324Z" fill="white"/>
<path id="Vector_13" fill-rule="evenodd" clip-rule="evenodd" d="M29.8232 21.4134C29.9645 21.4134 30.0705 21.3427 30.0705 21.2367C30.0705 21.1307 29.9645 21.0601 29.8232 21.0601L22.9681 21.0954C22.8267 21.0954 22.7207 21.1661 22.7207 21.2721C22.7207 21.3781 22.8267 21.4488 22.9681 21.4488L29.8232 21.4134Z" fill="white"/>
<path id="Vector_14" fill-rule="evenodd" clip-rule="evenodd" d="M29.8232 20.495C29.9645 20.495 30.0705 20.4243 30.0705 20.3183C30.0705 20.2123 29.9645 20.1416 29.8232 20.1416L22.9681 20.1769C22.8267 20.1769 22.7207 20.2476 22.7207 20.3536C22.7207 20.4596 22.8267 20.5303 22.9681 20.5303L29.8232 20.495Z" fill="white"/>
<path id="Vector_15" fill-rule="evenodd" clip-rule="evenodd" d="M29.788 19.576C29.9294 19.576 30.0354 19.5053 30.0354 19.3993C30.0354 19.2933 29.9294 19.2227 29.788 19.2227L22.9329 19.258C22.7915 19.258 22.6855 19.3287 22.6855 19.4347C22.6855 19.5407 22.7915 19.6114 22.9329 19.6114L29.788 19.576Z" fill="white"/>
<path id="Vector_16" fill-rule="evenodd" clip-rule="evenodd" d="M29.788 18.6571C29.9294 18.6571 30.0354 18.5864 30.0354 18.4804C30.0354 18.3744 29.9294 18.3037 29.788 18.3037L22.9329 18.339C22.7915 18.339 22.6855 18.4097 22.6855 18.5157C22.6855 18.6217 22.7915 18.6924 22.9329 18.6924L29.788 18.6571Z" fill="white"/>
<path id="Vector_17" fill-rule="evenodd" clip-rule="evenodd" d="M29.788 17.7386C29.9294 17.7386 30.0354 17.6679 30.0354 17.5619C30.0354 17.4559 29.9294 17.3853 29.788 17.3853L22.9329 17.4206C22.7915 17.4206 22.6855 17.4913 22.6855 17.5973C22.6855 17.7033 22.7915 17.7739 22.9329 17.7739L29.788 17.7386Z" fill="white"/>
<path id="Vector_18" fill-rule="evenodd" clip-rule="evenodd" d="M29.788 16.8197C29.9294 16.8197 30.0354 16.749 30.0354 16.643C30.0354 16.537 29.9294 16.4663 29.788 16.4663L22.9329 16.5016C22.7915 16.5016 22.6855 16.5723 22.6855 16.6783C22.6855 16.7843 22.7915 16.855 22.9329 16.855L29.788 16.8197Z" fill="white"/>
<path id="Vector_19" fill-rule="evenodd" clip-rule="evenodd" d="M29.7529 15.9012C29.8942 15.9012 30.0002 15.8305 30.0002 15.7245C30.0002 15.6185 29.8942 15.5479 29.7529 15.5479L22.8977 15.5832C22.7564 15.5832 22.6504 15.6539 22.6504 15.7599C22.6504 15.8659 22.7564 15.9365 22.8977 15.9365L29.7529 15.9012Z" fill="white"/>
<path id="Vector_20" fill-rule="evenodd" clip-rule="evenodd" d="M29.7529 14.9823C29.8942 14.9823 30.0002 14.9116 30.0002 14.8056C30.0002 14.6996 29.8942 14.6289 29.7529 14.6289L22.8977 14.6642C22.7564 14.6642 22.6504 14.7349 22.6504 14.8409C22.6504 14.9469 22.7564 15.0176 22.8977 15.0176L29.7529 14.9823Z" fill="white"/>
<path id="Vector_21" fill-rule="evenodd" clip-rule="evenodd" d="M29.7529 14.0638C29.8942 14.0638 30.0002 13.9931 30.0002 13.8871C30.0002 13.7811 29.8942 13.7104 29.7529 13.7104L22.8977 13.7458C22.7564 13.7458 22.6504 13.8164 22.6504 13.9225C22.6504 14.0285 22.7564 14.0991 22.8977 14.0991L29.7529 14.0638Z" fill="white"/>
<path id="Vector_22" fill-rule="evenodd" clip-rule="evenodd" d="M10.459 33.1801C17.5261 14.0989 20.3176 6.60772 21.413 3.63952C21.0597 3.60419 20.671 3.60418 20.3176 3.56885C19.2929 5.68899 17.6675 8.83386 16.5014 9.71726C14.6993 11.06 13.9572 11.4487 13.9572 11.4487L10.459 33.1801ZM15.5473 12.9328C16.1127 12.9328 16.5721 13.3922 16.5721 13.9575C16.5721 14.5229 16.1127 14.9469 15.5473 14.9469C14.982 14.9469 14.5579 14.4876 14.5579 13.9575C14.5226 13.3922 14.982 12.9328 15.5473 12.9328Z" fill="white"/>
<path id="Vector_23" fill-rule="evenodd" clip-rule="evenodd" d="M20.6715 33.1802C15.2298 18.5159 12.297 10.6714 10.7422 6.46648C11.0955 6.21913 11.4842 5.97178 11.8729 5.75977C12.7917 7.45588 13.8164 9.15199 14.6291 9.75269C16.4312 11.0954 17.1733 11.4841 17.1733 11.4841L20.6715 33.1802ZM15.5479 12.9329C14.9825 12.9329 14.5585 13.3923 14.5585 13.9576C14.5585 14.523 15.0178 14.947 15.5479 14.947C16.1132 14.947 16.5726 14.4877 16.5726 13.9576C16.5372 13.3923 16.1132 12.9329 15.5479 12.9329Z" fill="white"/>
<path id="Vector_24" fill-rule="evenodd" clip-rule="evenodd" d="M20 2.26148C15.1237 2.26148 10.6714 4.24028 7.45582 7.45583C4.24027 10.6714 2.26147 15.0883 2.26147 20C2.26147 24.8763 4.24027 29.3286 7.45582 32.5442C10.6714 35.7597 15.0883 37.7385 20 37.7385C24.8763 37.7385 29.3286 35.7597 32.5442 32.5442C35.7597 29.3286 37.7385 24.9117 37.7385 20C37.7385 15.1237 35.7597 10.6714 32.5442 7.45583C29.3286 4.24028 24.9116 2.26148 20 2.26148ZM5.86572 5.86573C9.46995 2.26149 14.4876 0 20 0C25.5124 0 30.4947 2.22615 34.1343 5.86573C37.7385 9.46996 40 14.4876 40 20C40 25.5124 37.7738 30.4947 34.1343 34.1343C30.53 37.7385 25.5124 40 20 40C14.4876 40 9.50529 37.7738 5.86572 34.1343C2.26148 30.53 0 25.5124 0 20C0.0353357 14.4523 2.26148 9.46996 5.86572 5.86573Z" fill="#B48E40"/>
</g>
</svg>
