<svg width="60" height="60" viewBox="0 0 60 60" fill="none" xmlns="http://www.w3.org/2000/svg">
<g id="massage 1" clip-path="url(#clip0_239_1061)">
<g id="Group">
<g id="Group_2">
<path id="Vector" d="M26.8922 28.7014L26.9938 28.4972L25.2625 27.6311L25.1609 27.8363C24.7922 28.5738 24.0509 29.0324 23.2254 29.0324C22.4 29.0324 21.6586 28.5738 21.29 27.8363L21.1884 27.6322L19.457 28.4983L19.5586 28.7024C20.2573 30.0999 21.6625 30.9679 23.2254 30.9679C24.7884 30.9679 26.1936 30.0998 26.8922 28.7014Z" fill="current-color"/>
<path id="Vector_2" d="M34.8388 27.8362L34.7372 27.632L33.0059 28.4982L33.1075 28.7023C33.8061 30.0998 35.2113 30.9678 36.7743 30.9678C38.3372 30.9678 39.7423 30.0998 40.4411 28.7014L40.5427 28.4972L38.8113 27.6311L38.7097 27.8363C38.3411 28.5738 37.5997 29.0324 36.7743 29.0324C35.9488 29.0323 35.2076 28.5736 34.8388 27.8362Z" fill="current-color"/>
<path id="Vector_3" d="M41.6129 13.5484H45.2797C45.8545 13.5484 46.4111 13.7168 46.89 14.0361L49.0616 15.4839H60V13.5484H52.112C50.4561 10.6848 47.9768 8.4784 45.0581 7.16813C45.9543 5.93906 46.4517 4.44586 46.4517 2.90332V1.93559H45.484C43.6356 1.93559 41.7901 1.70812 39.9988 1.26012L37.3211 0.590391C35.7541 0.199336 34.1391 0 32.5209 0C30.1461 0 27.8439 0.667735 25.8416 1.93547H25.1613C17.3961 1.93547 10.5155 6.47613 7.43227 13.5484H0V15.4839H10.9384L13.11 14.0361C13.5891 13.7168 14.1455 13.5484 14.7203 13.5484H18.3871C18.9203 13.5484 19.3548 13.9829 19.3548 14.5161C19.3548 15.0493 18.9203 15.4839 18.3871 15.4839H15.4839V17.4193H22.258C22.7912 17.4193 23.2257 17.8539 23.2257 18.3871V22.258C23.2257 22.7912 22.7912 23.2257 22.258 23.2257H16.4516H15.4839H0V25.1612H5.80641V26.7957C5.80641 28.1555 5.55 29.486 5.0448 30.7489L4.51066 32.0854C4.08586 33.147 3.87094 34.2647 3.87094 35.4067C3.87094 37.7951 4.80094 40.0412 6.49066 41.7299L8.26641 43.5059L8.87613 41.0661C10.3529 44.0216 12.9503 46.3055 16.1459 47.37L18.8217 48.2613L16.4556 44.7116C15.8197 43.7584 15.484 42.6503 15.484 41.5055C15.484 40.5291 15.726 39.5903 16.1788 38.7561C17.3556 42.0241 19.952 44.612 23.2259 45.7741V48.5351L13.2968 50.1899C8.95652 50.9128 5.80652 54.6319 5.80652 59.0321V60H54.1936V59.0323C54.1936 54.632 51.0436 50.9129 46.7033 50.19L36.7743 48.5352V45.7743C40.0491 44.6111 42.6456 42.0243 43.8213 38.7562C44.2743 39.5904 44.5161 40.5292 44.5161 41.5056C44.5161 42.6504 44.1803 43.7595 43.5455 44.7117L41.1793 48.2614L43.8552 47.3701C47.0497 46.3056 49.6481 44.0208 51.1249 41.0662L51.7346 43.506L53.5105 41.7301C55.1992 40.0404 56.1292 37.7953 56.1292 35.4069C56.1292 34.2649 55.9144 33.1472 55.4895 32.0866L54.9553 30.7502C54.4501 29.4864 54.1937 28.1557 54.1937 26.7961V25.1613H60V23.2259H44.5161H43.5484H37.742C37.2088 23.2259 36.7743 22.7913 36.7743 22.2581V18.3872C36.7743 17.854 37.2088 17.4195 37.742 17.4195H44.5161V15.484H41.6129C41.0797 15.484 40.6452 15.0495 40.6452 14.5163C40.6452 13.983 41.0797 13.5484 41.6129 13.5484ZM15.4839 25.1613V32.9032C13.3491 32.9032 11.6129 31.1671 11.6129 29.0323C11.6129 26.8975 13.3491 25.1613 15.4839 25.1613ZM13.5484 41.5055C13.5484 42.4171 13.7081 43.3113 14.0159 44.1541C12.0436 42.7721 10.5727 40.7419 9.89426 38.3661L8.6468 34.0036L7.2348 39.6504C6.30867 38.4359 5.80641 36.9601 5.80641 35.4068C5.80641 34.5116 5.9748 33.6359 6.30773 32.8045L6.84188 31.4681C7.43895 29.9749 7.74188 28.4033 7.74188 26.7959V25.1613H11.1677C10.2445 26.19 9.67746 27.5439 9.67746 29.0323C9.67746 32.2345 12.2816 34.8387 15.4839 34.8387C15.4839 35.3332 15.5255 35.8171 15.5855 36.2951C14.2741 37.7216 13.5484 39.5555 13.5484 41.5055ZM48.3871 29.0323C48.3871 31.1671 46.6509 32.9032 44.5161 32.9032V25.1613C46.6509 25.1613 48.3871 26.8975 48.3871 29.0323ZM53.158 31.468L53.6922 32.8044C54.0251 33.6357 54.1935 34.5115 54.1935 35.4067C54.1935 36.9599 53.6912 38.4357 52.7641 39.6492L51.3521 34.0024L50.1047 38.366C49.4263 40.7419 47.9554 42.7721 45.9831 44.154C46.2918 43.3102 46.4515 42.417 46.4515 41.5053C46.4515 39.5554 45.7256 37.7215 44.4144 36.2951C44.4744 35.8171 44.516 35.3331 44.516 34.8387C47.7183 34.8387 50.3224 32.2345 50.3224 29.0323C50.3224 27.5439 49.7554 26.19 48.8321 25.1613H52.258V26.7959C52.258 28.4032 52.5609 29.9748 53.158 31.468ZM37.742 25.1613H42.5807V34.8388C42.5807 40.1749 38.2393 44.5163 32.9032 44.5163V46.4517C33.5641 46.4517 34.2077 46.383 34.8387 46.2765V50.1745L46.3848 52.0984C49.4651 52.6113 51.7809 55.0481 52.1923 58.0645H7.80773C8.22 55.0491 10.5357 52.6123 13.6152 52.0984L25.1613 50.1745V46.2765C25.7923 46.3829 26.4359 46.4517 27.0968 46.4517V44.5163C21.7607 44.5163 17.4193 40.1749 17.4193 34.8388V25.1613H22.258C23.8587 25.1613 25.1612 23.8588 25.1612 22.2581V18.3872C25.1612 17.8181 24.9909 17.2908 24.7064 16.8417C25.2444 16.4024 25.8589 16.0743 26.5151 15.842C28.6653 17.9875 31.6064 19.29 34.8387 19.3452V22.2581C34.8387 23.8587 36.1413 25.1613 37.742 25.1613ZM37.8223 15.4839L37.2359 15.3861C34.3956 14.9129 31.9684 12.9581 30.8991 10.2852L29.102 11.0043C30.2091 13.772 32.5045 15.8991 35.284 16.8611C35.1756 17.0352 35.0885 17.222 35.0188 17.4175C30.2372 17.402 26.1775 14.1377 25.1391 9.46746L23.25 9.88746C23.6129 11.5191 24.2913 13.0007 25.2039 14.2888C24.4577 14.6304 23.7745 15.0881 23.1659 15.6436C22.8784 15.5477 22.5765 15.4839 22.2581 15.4839H21.1123C21.2207 15.18 21.2903 14.8568 21.2903 14.5161C21.2903 12.9155 19.9877 11.6129 18.3871 11.6129H14.7203C13.7623 11.6129 12.8341 11.8945 12.0367 12.4259L10.3519 13.5484H9.55441C12.4819 7.62586 18.4576 3.87094 25.1612 3.87094H26.4221L26.666 3.7084C28.406 2.54813 30.4305 1.93547 32.5208 1.93547C33.9802 1.93547 35.4376 2.11453 36.8515 2.46867L39.5292 3.1384C41.1338 3.54 42.7779 3.77812 44.4308 3.84867C44.2537 4.82027 43.794 5.71734 43.1272 6.45281C41.7143 6.03281 40.2308 5.80641 38.7095 5.80641V7.74188C43.1863 7.74188 47.3079 9.93281 49.825 13.5483H49.6479L47.964 12.4257C47.1656 11.8944 46.2376 11.6128 45.2795 11.6128H41.6127C41.4047 11.6128 41.2034 11.637 41.0079 11.6787C39.0511 9.21 36.0782 7.74188 32.9031 7.74188V9.67734C35.4124 9.67734 37.7679 10.8028 39.3599 12.7073C38.9592 13.2048 38.7096 13.8289 38.7096 14.516C38.7096 14.8567 38.7793 15.1799 38.8876 15.4838H37.8223V15.4839Z" fill="current-color"/>
<path id="Vector_4" d="M29.5509 34.8387H30.9686V32.9032H29.5509C29.2654 32.9032 29.0331 32.6709 29.0331 32.3855C29.0331 32.2829 29.0631 32.1841 29.1202 32.098L29.7327 31.1796C30.5407 29.966 30.9686 28.5541 30.9686 27.0967H29.0331C29.0331 28.1708 28.7177 29.2121 28.1225 30.1053L27.5099 31.0237C27.2399 31.4292 27.0977 31.8996 27.0977 32.3854C27.0977 33.7384 28.1979 34.8387 29.5509 34.8387Z" fill="current-color"/>
<path id="Vector_5" d="M32.9025 36.6174C32.4855 37.8687 31.3184 38.7097 29.9993 38.7097C28.6803 38.7097 27.5132 37.8687 27.0961 36.6165L27.0468 36.4674L25.2109 37.0799L25.2603 37.2279C25.9405 39.2728 27.8451 40.645 29.9993 40.645C32.1535 40.645 34.058 39.2728 34.7384 37.2289L34.7877 37.0798L32.9519 36.4673L32.9025 36.6174Z" fill="current-color"/>
</g>
</g>
</g>
<defs>
<clipPath id="clip0_239_1061">
<rect width="60" height="60" fill="white"/>
</clipPath>
</defs>
</svg>
