<svg width="140" height="140" viewBox="0 0 140 140" fill="none" xmlns="http://www.w3.org/2000/svg">
<g id="quotation (2) 1" opacity="0.05">
<g id="Group">
<g id="Group_2">
<path id="Vector" d="M34.4222 64.2698C35.6519 54.9473 43.8927 46.509 58.9668 39.1557L61.6812 37.8314L50.5526 17.2853L48.0402 18.5587C16.1632 34.7175 0 57.5537 0 86.4336C0 96.3982 3.16313 105.004 9.40215 112.014C15.7287 119.121 23.4063 122.724 32.2232 122.724C40.1455 122.724 46.8634 119.903 52.1899 114.338C57.4818 108.81 60.165 101.942 60.165 93.9266C60.165 86.3524 57.4547 79.6023 52.1093 73.8639C47.3947 68.8023 41.4539 65.5826 34.4222 64.2698ZM48.0074 110.335C43.7566 114.776 38.5935 116.934 32.2232 116.934C25.0305 116.934 18.9804 114.066 13.7274 108.164C8.38605 102.164 5.78949 95.0556 5.78949 86.4333C5.78949 73.197 9.51672 61.247 16.867 50.9157C23.8804 41.0585 34.3995 32.3558 48.1592 25.0212L53.7343 35.3139C36.9671 44.1005 28.4717 54.6629 28.4717 66.7384V69.3241L31.0406 69.615C37.9608 70.3984 43.4659 73.0789 47.8729 77.8099C52.2482 82.507 54.3752 87.7792 54.3752 93.9263C54.3755 100.491 52.2922 105.858 48.0074 110.335Z" fill="current-color"/>
</g>
</g>
<g id="Group_3">
<g id="Group_4">
<path id="Vector_2" d="M112.987 64.2783C114.201 54.9481 122.374 46.5054 137.328 39.1513L140.001 37.8369L129.148 17.2761L126.611 18.5563C94.5883 34.7143 78.3516 57.5515 78.3516 86.4336C78.3516 96.4045 81.5552 105.015 87.8729 112.027C94.2695 119.125 101.979 122.724 110.789 122.724C118.721 122.724 125.408 119.897 130.663 114.323C135.874 108.796 138.516 101.934 138.516 93.9263C138.516 86.3518 135.806 79.6018 130.461 73.8637C125.756 68.813 119.887 65.596 112.987 64.2783ZM126.451 110.351C122.274 114.781 117.151 116.935 110.789 116.935C103.589 116.935 97.4998 114.062 92.1738 108.151C86.7682 102.152 84.1408 95.0488 84.1408 86.4336C84.1408 73.1995 87.885 61.2514 95.2678 50.9212C102.312 41.0662 112.877 32.3649 126.695 25.031L132.119 35.3079C115.473 44.0975 107.038 54.6621 107.038 66.7387V69.3186L109.6 69.6145C116.378 70.3968 121.816 73.0775 126.225 77.8102C130.6 82.507 132.727 87.7786 132.727 93.9266C132.727 100.499 130.674 105.872 126.451 110.351Z" fill="current-color"/>
</g>
</g>
</g>
</svg>
