<svg width="440" height="372" viewBox="0 0 440 372" fill="none" xmlns="http://www.w3.org/2000/svg">
<g opacity="0.05">
<path d="M562.798 312.186C557.749 316.776 553.618 321.366 547.192 324.12C539.389 327.332 530.669 327.332 522.866 324.12C525.62 308.514 520.571 294.285 509.555 283.269C494.867 268.581 477.884 256.189 457.689 252.058C437.952 247.927 418.674 251.599 398.938 252.517C379.201 252.976 362.677 242.878 347.531 231.862C346.613 231.403 346.154 231.403 345.695 231.862C345.236 231.862 344.777 231.403 344.318 231.862C333.761 235.534 320.909 232.78 309.893 230.944C296.124 228.649 283.272 223.141 270.879 216.715C263.994 213.043 256.65 208.912 249.765 204.782C249.765 204.782 249.306 204.323 248.847 204.323C241.962 200.192 235.078 195.602 228.193 191.012C171.737 126.753 67.5454 12.4638 61.1195 6.95589C57.9066 4.20194 54.2346 1.44798 50.1037 0.529999C46.4318 -0.387986 43.2188 0.0710064 39.5469 0.529999C39.0879 0.529999 39.0879 0.529999 38.6288 0.529999C37.7109 0.988991 37.2519 1.44798 37.2519 2.36597C37.2519 2.36597 37.2519 2.82496 37.7109 2.82496C39.5469 6.4969 90.495 72.5918 130.886 125.376C75.3483 88.1975 6.04047 42.2983 2.36853 40.4623C2.36853 40.4623 1.90948 40.4623 1.90948 40.0033C0.991516 40.0033 0.0735474 40.4623 0.0735474 41.3803C0.0735474 41.8393 0.0735474 41.8393 0.0735474 42.2983C0.0735474 45.9702 -0.385437 49.6422 0.991516 52.8551C2.36847 56.986 5.58148 60.199 8.33545 63.4119C14.3023 69.3788 135.017 166.226 202.948 218.092C213.046 231.403 223.144 244.714 231.865 258.943C239.208 270.876 245.175 283.269 248.388 297.039C251.142 307.596 254.814 320.448 251.601 331.463C251.601 331.922 251.601 332.381 251.601 332.84C251.142 333.299 251.142 334.217 251.601 334.676C263.535 349.364 275.01 364.97 275.928 384.706C276.846 404.443 274.092 423.721 279.6 443.457C285.108 463.653 298.877 479.718 314.483 493.488C326.417 504.044 341.105 507.716 356.71 504.044H357.169C361.759 502.667 366.808 501.29 370.939 498.537C375.07 495.783 378.742 491.193 381.496 487.062C381.496 487.062 381.496 486.603 381.955 486.603C393.43 466.407 391.594 442.539 384.25 421.426C383.332 419.131 382.414 416.836 381.496 414.541C380.119 407.197 373.234 400.771 368.644 395.263C361.3 387.001 351.203 379.658 340.187 377.363C340.187 377.363 340.187 377.363 340.187 376.904C306.68 372.773 284.649 334.676 273.633 305.301C269.502 294.285 265.83 282.81 263.076 270.876C261.699 264.451 258.945 254.353 259.404 245.632C268.125 244.714 278.223 246.55 284.649 247.468C296.583 249.304 308.057 252.058 319.532 255.73C352.121 265.368 396.643 287.859 396.184 327.332C395.725 327.791 395.725 328.25 395.725 328.709C395.266 337.889 404.446 343.397 411.331 347.069C420.969 352.118 431.985 355.79 442.083 358.544C464.115 364.97 488.9 364.97 507.26 348.905C507.719 348.905 507.719 348.446 507.719 348.446C509.555 346.61 514.145 348.905 516.44 349.364C519.194 350.282 521.489 350.741 524.702 350.741C532.045 350.741 539.848 347.987 546.733 345.692C558.667 341.561 569.683 333.758 573.814 321.366C576.568 314.022 569.683 306.219 562.798 312.186ZM41.3829 3.28395C45.0548 3.28395 48.7267 3.28395 51.9396 5.57891C56.9886 8.79186 61.1195 12.9228 65.2504 17.5127C71.2173 23.0206 158.426 118.491 214.423 180.914C207.997 176.324 201.571 172.193 195.145 168.062C190.555 164.849 181.834 159.341 171.278 152.456C171.278 152.456 171.278 152.456 171.278 151.997C171.278 151.997 170.819 151.538 169.442 150.161C168.983 149.702 168.065 148.784 167.606 147.866C167.147 147.408 166.688 146.949 166.229 146.49C165.77 146.031 165.311 145.572 164.852 145.113C163.934 144.195 163.016 142.818 162.098 141.441C161.18 140.064 160.262 138.687 159.344 137.31C158.426 135.933 157.508 134.556 156.59 132.72C155.672 131.343 154.754 129.507 153.836 128.13C152 124.917 150.164 121.704 147.869 118.95C146.951 117.573 146.033 116.196 145.115 114.819C144.197 113.442 143.279 112.524 142.361 111.147C141.902 110.688 141.443 110.229 140.984 109.77C140.525 109.311 140.066 108.852 139.607 108.393C138.689 107.475 138.23 107.016 137.771 106.098C136.853 104.721 135.935 104.262 135.935 104.262C135.935 104.262 136.394 105.18 137.312 106.098C137.771 106.557 138.23 107.475 139.148 108.393C139.607 108.852 140.066 109.311 140.066 109.77C140.525 110.229 140.984 110.688 140.984 111.606C141.902 112.524 142.361 113.901 143.279 115.278C144.197 116.655 145.115 118.032 146.033 119.409C147.869 122.163 149.705 125.376 151.541 128.589C152.459 129.966 153.377 131.802 154.295 133.179C155.213 134.556 156.131 136.392 157.049 137.769C157.967 139.146 158.885 140.523 159.803 141.9C160.721 143.277 161.639 144.654 162.557 145.572C163.016 146.031 163.016 146.49 163.475 146.949C162.557 146.49 161.639 146.031 161.18 145.113C161.18 145.113 160.262 144.195 159.344 142.818C158.885 142.359 157.967 140.982 157.049 140.064C156.131 139.146 155.213 137.769 154.295 136.392C153.377 135.015 152.459 133.638 151.082 131.802C150.164 130.425 148.787 128.589 147.869 126.753C146.492 124.917 145.574 123.081 144.197 121.245C143.738 120.327 142.82 119.409 142.361 118.491C141.902 117.573 140.984 116.655 140.525 115.737C139.148 113.901 137.771 112.065 136.394 110.229C135.017 108.393 134.099 106.557 132.722 105.18C130.427 101.967 128.132 98.7543 126.296 96.0004C124.46 93.2464 122.624 90.9515 121.247 89.5745C119.87 88.1975 119.412 87.2795 119.412 87.2795C119.412 87.2795 119.87 88.1975 121.247 89.5745C122.165 91.4105 124.001 93.2464 125.837 96.0004C127.673 98.7543 129.968 101.967 132.263 105.639C133.64 107.475 134.558 109.311 135.935 111.147C137.312 112.983 138.23 114.819 139.607 116.655C140.066 117.573 140.984 118.491 141.443 119.409C141.902 120.327 142.82 121.245 143.279 122.163C144.656 123.999 145.574 125.835 146.492 127.671C147.41 129.507 148.787 131.343 149.705 132.72C150.623 134.556 151.541 135.933 152.918 137.31C153.377 138.228 154.295 139.146 154.754 140.064C152.459 138.687 150.623 137.31 148.328 135.933C148.328 135.933 148.328 135.933 148.787 135.933C149.246 135.474 149.246 134.556 149.246 134.097C149.246 134.097 147.869 132.261 146.033 129.507C145.115 128.13 143.738 126.294 142.361 124.458C140.984 122.622 139.148 120.327 137.312 117.573C135.476 115.278 133.64 112.524 131.345 109.77C129.05 107.016 126.755 104.262 124.46 101.049C122.165 97.8363 119.871 95.0824 117.576 91.8694C115.281 88.6565 112.986 85.4436 110.232 82.2306C107.937 79.0177 105.183 75.8047 102.888 72.5918C100.593 69.3788 97.8389 66.1659 95.5439 63.4119C90.954 57.445 86.8231 51.4781 83.1511 46.4292C81.3152 44.1343 79.4792 41.8393 78.1022 40.0033C76.7253 38.1674 74.8893 36.3314 73.9713 34.9544C71.6763 32.2005 69.8404 30.8235 69.8404 30.8235C69.8404 30.8235 71.2173 32.2005 73.5123 34.9544C74.4303 36.3314 76.2662 38.1674 77.6432 40.0033C79.0202 41.8393 80.8562 44.1343 82.6921 46.8882C86.3641 51.9371 90.036 57.904 94.6259 63.8709C96.9209 67.0839 99.2159 69.8378 101.97 73.0508C104.265 76.2637 107.019 79.4767 109.314 82.6896C111.609 85.9025 113.904 89.5745 116.199 92.7874C118.494 96.0004 120.788 99.2133 123.083 102.426C125.378 105.639 127.673 108.393 129.509 111.147C131.804 113.901 133.64 116.655 135.017 119.409C136.853 121.704 138.23 124.458 139.607 126.294C140.984 128.13 142.361 129.966 143.279 131.343C144.197 132.72 145.115 133.638 145.574 134.556C143.738 133.638 142.361 132.261 140.525 131.343C98.2979 77.1817 43.2188 5.57891 41.3829 3.28395ZM212.587 226.813C217.636 230.485 222.226 234.157 226.357 236.911V237.37C226.357 237.829 226.357 237.829 226.357 238.288C226.357 238.747 226.357 239.206 226.357 239.665C226.357 240.583 226.357 241.501 226.357 241.96C226.357 242.419 226.357 242.878 226.357 242.878C226.357 242.878 226.357 242.419 226.816 241.96C227.275 241.501 227.275 240.583 227.734 239.665C227.734 239.206 228.193 238.747 228.193 238.288C228.652 238.747 229.111 238.747 229.111 239.206V239.665C229.111 239.665 229.111 239.665 229.111 240.124C229.111 240.583 229.111 241.042 229.111 241.501C229.111 241.96 229.111 242.419 229.111 243.337C229.111 243.796 229.111 244.714 229.111 245.632C229.111 247.009 228.652 248.386 228.652 249.304C223.603 241.501 218.554 234.157 212.587 226.813ZM229.111 249.763C229.111 249.304 229.111 249.763 229.111 249.763C229.57 248.386 230.029 247.009 230.488 245.632C230.488 244.714 230.947 244.255 230.947 243.337C230.947 242.419 231.406 241.96 231.406 241.501C231.406 241.042 231.406 241.042 231.406 241.042C231.865 241.501 232.324 241.96 232.783 241.96C232.783 242.419 232.783 242.878 233.242 243.337C233.242 243.337 233.242 243.796 233.242 244.255C233.242 245.173 233.242 246.55 233.242 247.927C232.783 250.681 232.783 253.435 232.783 253.435C232.783 253.435 233.701 250.681 234.619 247.927C235.078 246.55 235.537 245.173 235.537 243.796V243.337C236.454 244.255 237.832 244.714 238.749 245.632C238.749 245.632 238.749 246.55 238.29 248.386C238.29 248.845 238.29 249.304 237.831 249.763C237.831 250.222 237.831 250.681 237.831 251.14C237.831 252.058 237.372 253.435 237.372 254.353C237.372 255.271 237.372 256.648 237.372 257.566C237.372 258.025 237.372 258.484 237.372 258.943C237.372 259.402 237.372 259.861 237.372 260.32C237.372 261.238 237.372 261.697 237.372 262.156C234.619 258.484 231.865 253.894 229.111 249.763ZM256.191 252.976C255.732 252.976 255.732 253.435 255.273 253.894C255.273 253.894 255.273 255.271 254.814 257.566C254.814 258.484 254.355 259.861 254.355 261.238C254.355 262.615 253.896 263.992 253.896 265.368C253.437 271.335 252.978 276.843 252.978 276.843C252.978 276.843 253.896 271.335 254.814 265.368C255.273 263.992 255.273 262.615 255.732 261.238C255.732 260.32 256.191 259.402 256.191 258.484C256.65 261.697 257.568 264.91 258.027 267.663C260.781 282.351 265.371 296.58 270.879 310.35C276.387 323.661 283.731 338.348 293.829 351.2C293.37 351.659 293.37 351.659 293.37 352.118C293.37 352.577 293.37 352.577 293.37 352.577C293.37 352.577 293.37 352.577 293.829 352.577C294.288 352.577 294.288 352.577 294.747 352.577H295.206H295.664C296.124 353.036 296.582 353.954 297.5 354.413C297.041 354.413 297.042 354.872 296.582 354.872C295.206 355.79 294.288 356.708 294.288 356.708C294.288 356.708 295.665 356.708 297.5 356.249C297.959 356.249 298.418 356.249 298.418 355.79H298.877C299.795 356.708 300.713 358.085 302.09 359.003C301.631 359.003 301.631 359.462 301.172 359.462C300.713 359.921 300.254 359.921 299.795 359.921C298.877 360.38 297.959 360.839 297.042 361.298C296.124 361.757 295.664 361.757 295.664 361.757C295.664 361.757 296.124 361.757 297.042 361.757C297.959 361.757 298.877 361.757 299.795 361.298C300.254 361.298 300.713 361.298 301.172 360.839C301.631 360.839 302.09 360.839 302.549 360.38H303.008C303.926 361.298 304.844 362.216 305.762 363.134C305.303 363.134 305.303 363.593 304.844 363.593C304.385 363.593 304.385 364.052 303.926 364.052C303.467 364.511 302.549 364.511 302.09 364.97C301.172 365.429 300.713 365.429 299.795 365.888C299.336 365.888 299.336 366.347 298.877 366.347C298.418 366.347 298.418 366.806 297.959 366.806C297.041 367.265 296.124 367.724 296.124 367.724C296.124 367.724 297.041 367.265 297.959 367.265C298.418 367.265 298.418 367.265 298.877 366.806C299.336 366.806 299.336 366.806 299.795 366.347C300.713 366.347 301.172 365.888 302.09 365.888C303.008 365.888 303.467 365.429 304.385 365.429C304.844 365.429 305.303 365.429 305.303 364.97C305.762 364.97 305.762 364.97 306.221 364.511C306.68 364.511 306.68 364.511 307.139 364.052C308.057 364.97 309.434 365.888 310.811 366.806C309.434 367.265 307.598 368.183 306.221 369.101C303.008 370.478 299.336 371.855 299.336 371.855C299.336 371.855 303.008 370.937 306.68 370.019C309.434 369.101 311.729 368.642 313.106 368.183C314.483 369.101 315.86 370.019 317.237 370.937C316.778 370.937 315.86 371.396 315.401 371.396C314.942 371.855 314.024 371.855 313.565 372.314C313.106 372.773 312.188 372.773 311.729 373.232C308.975 374.609 306.68 376.445 304.385 377.363C303.467 377.822 302.549 378.281 302.09 378.281C301.631 378.281 301.172 378.74 301.172 378.74C301.172 378.74 301.631 378.74 302.09 378.74C302.549 378.74 303.467 378.281 304.844 377.822C307.139 376.904 309.893 375.986 312.647 374.609C313.565 374.15 314.024 374.15 314.483 373.691C314.942 373.232 315.86 373.232 316.319 373.232C316.778 373.232 317.696 372.773 318.155 372.773C318.614 372.773 319.532 372.773 319.991 372.773C320.45 372.773 320.909 372.773 321.368 372.773C326.417 375.527 331.925 377.363 337.433 378.74H337.892C347.99 380.576 356.71 386.083 364.054 393.427C367.267 396.64 372.775 402.148 375.988 407.197H375.529C377.824 412.705 380.119 418.213 381.955 423.721C387.922 442.998 389.758 465.03 376.447 482.013C375.988 482.472 375.988 482.472 375.988 482.931C373.693 486.603 370.021 490.275 366.349 493.029C363.595 494.865 358.087 496.242 354.416 497.16C345.236 499.454 335.597 499.454 326.876 494.865C318.155 490.734 312.188 483.849 305.762 476.964C297.959 468.702 289.698 459.981 285.567 448.965C282.354 440.245 280.059 431.524 279.141 422.344C277.305 405.361 281.436 387.001 277.305 370.478C273.633 354.872 263.994 342.02 254.355 330.086V329.627C257.109 319.071 253.896 307.137 251.601 296.58C248.847 284.187 244.257 272.712 238.29 261.697C238.29 261.238 237.831 261.238 237.831 260.779C237.831 260.32 237.831 259.402 238.29 258.943C238.29 258.484 238.29 258.025 238.29 257.566C238.29 257.107 238.29 256.648 238.749 256.189C238.749 255.271 239.208 253.894 239.208 252.976C239.667 252.058 239.667 250.681 240.126 249.763C240.126 249.304 240.585 248.845 240.585 248.386C240.585 247.927 241.044 247.468 241.044 247.009C241.503 246.091 241.503 245.632 241.503 245.173C242.421 246.091 243.798 246.55 244.257 247.009C244.257 247.468 243.798 247.468 244.257 247.927C244.257 247.927 244.257 248.386 244.257 248.845C244.257 249.304 244.257 250.222 244.257 250.681C244.257 251.14 244.257 251.599 244.257 252.058C244.257 252.517 244.257 252.976 244.257 253.435C244.257 254.353 244.257 255.73 243.798 256.648C243.339 258.943 243.339 261.238 242.88 263.074C242.88 264.91 242.421 265.827 242.421 265.827C242.421 265.827 242.88 264.91 243.339 263.074C243.798 261.238 244.257 258.943 245.175 257.107C245.634 256.189 245.634 254.812 246.093 253.894C246.093 253.435 246.552 252.976 246.552 252.517C246.552 252.058 246.552 251.599 246.552 251.14C246.552 250.681 246.552 249.763 246.552 249.304C247.011 249.304 247.929 249.304 248.388 248.845L248.847 248.386C248.847 248.386 248.847 248.845 248.847 249.304C248.847 249.763 248.847 249.763 248.847 250.222C248.847 250.681 248.847 250.681 248.847 251.14C248.847 251.599 248.847 252.058 248.847 252.517C248.847 252.976 248.847 253.435 248.847 253.894C248.847 254.353 248.847 254.812 248.847 255.73C248.847 256.189 248.847 256.648 248.847 257.566C248.388 262.156 247.47 266.745 247.47 266.745C247.47 266.745 247.929 265.827 248.388 263.992C248.847 262.156 249.306 259.861 250.224 257.566C250.224 257.107 250.683 256.189 250.683 255.73C250.683 255.271 251.142 254.812 251.142 253.894C251.142 253.435 251.142 252.976 251.142 252.517C251.142 252.058 251.142 251.599 251.142 251.14C251.142 250.681 251.142 250.222 251.142 249.763C251.142 249.304 251.142 249.304 251.142 248.845C251.142 248.386 251.142 247.927 251.142 247.927C251.142 247.468 250.683 247.009 250.224 247.009C251.601 246.091 253.437 245.173 255.273 244.714C255.732 248.845 255.732 250.681 256.191 252.976ZM569.224 322.743C563.257 336.512 548.569 341.102 535.717 345.233C529.292 347.069 522.866 347.528 516.44 345.692C513.227 344.774 509.096 343.397 506.342 345.692C505.883 346.151 505.883 346.151 505.883 346.61C505.424 346.61 505.424 346.61 504.965 347.069C488.9 361.298 466.869 360.839 447.132 356.249C437.952 353.954 429.231 350.741 420.51 347.069C413.167 344.315 400.774 339.725 399.856 330.545C400.315 330.086 400.315 329.627 400.315 329.168C401.692 287.859 357.628 264.91 324.581 253.435C310.352 248.845 295.665 245.632 280.977 243.337C270.879 241.96 256.191 239.665 247.47 246.091C230.029 237.37 27.1541 74.8867 17.9742 67.5429C13.3843 63.8709 8.79437 59.74 5.12244 55.1501C2.82745 51.9371 2.36853 48.2652 2.36853 44.5932C6.04047 46.8882 168.524 155.21 196.981 173.57C210.751 182.75 224.521 191.93 238.29 201.11C235.996 201.11 233.701 201.11 231.406 201.11L230.947 200.651L230.488 200.192C230.029 199.733 229.57 199.274 229.57 198.815C228.652 197.897 228.193 196.979 227.734 196.061C227.275 195.143 226.816 194.684 226.816 194.684C226.816 194.684 226.816 195.143 227.275 196.061C227.734 196.979 227.734 197.897 228.193 199.274C228.652 199.733 228.652 200.651 229.111 201.11C229.111 201.11 229.111 201.11 229.111 201.569C228.193 201.569 227.734 201.569 226.816 201.569C226.357 201.569 225.898 201.569 224.98 201.569L218.554 189.176L222.685 202.028C221.308 202.028 220.39 202.028 219.013 202.028C219.013 201.569 218.554 201.11 218.554 200.651C218.095 199.274 217.636 197.438 216.718 195.143C216.259 194.225 216.259 193.307 215.8 192.389C215.8 191.93 215.341 191.471 215.341 191.012C215.341 190.553 214.882 190.094 214.882 190.094C214.423 189.176 214.423 188.717 213.964 188.258C213.964 187.799 213.505 187.799 213.505 187.799C213.505 187.799 213.505 188.258 213.964 188.258C213.964 188.717 214.423 189.176 214.423 190.094C214.423 190.553 214.423 191.012 214.882 191.471C214.882 191.93 214.882 192.389 215.341 192.848C215.341 193.766 215.8 194.684 215.8 195.602C216.259 197.438 216.259 199.733 216.718 201.11V201.569C215.8 201.569 215.341 201.569 214.423 201.569V201.11C214.423 201.11 214.423 201.11 213.964 200.651L213.505 200.192C213.505 199.733 213.046 199.733 213.046 199.274C212.128 197.897 211.21 195.602 210.292 193.307C209.374 191.012 208.456 188.717 207.997 186.881C207.538 185.963 207.079 185.504 207.079 185.045C206.62 184.586 206.62 184.127 206.62 184.127C206.62 184.127 206.62 184.586 207.079 185.045C207.079 185.504 207.538 186.422 207.997 187.34C208.456 189.176 208.915 191.471 209.833 193.766C210.292 196.061 211.21 198.815 211.669 200.651C211.669 201.11 212.128 201.569 212.128 202.028C210.292 201.569 208.456 201.569 207.079 201.11C206.62 200.651 206.62 200.192 206.161 199.274C205.243 197.438 204.325 195.143 203.407 192.389C202.489 190.094 201.571 187.34 201.112 185.504C200.653 183.668 200.194 182.291 200.194 182.291C200.194 182.291 200.653 183.668 200.653 185.504C201.112 187.34 201.571 190.094 202.03 192.848C202.489 195.602 202.948 197.897 203.866 199.733C202.489 199.274 200.653 198.815 199.276 197.897C199.276 197.897 199.276 197.897 198.817 197.897C198.817 197.897 198.817 197.897 198.358 197.897C198.358 197.438 197.899 196.52 197.44 196.061C196.981 194.225 196.063 191.471 195.604 188.717C195.145 185.963 194.227 183.209 193.768 181.373C193.309 180.455 193.309 179.537 193.309 179.078C193.309 178.619 192.85 178.16 192.85 178.16C192.85 178.16 192.85 178.619 192.85 179.078C192.85 179.537 193.309 180.455 193.309 181.832C193.768 184.127 193.768 186.881 194.227 189.635C194.686 192.389 195.145 195.143 195.604 197.438C193.768 196.52 191.932 195.143 190.096 193.766C190.096 193.766 190.096 193.766 190.096 193.307C190.096 193.307 190.096 192.848 189.637 192.389C189.637 191.93 189.178 191.012 188.719 190.094C188.719 189.635 188.26 189.176 188.26 188.717C188.26 188.258 187.801 187.34 187.801 186.881C187.342 185.504 187.342 184.127 186.883 182.75C186.424 179.996 185.965 177.242 185.506 174.947C185.047 172.652 185.047 171.275 185.047 171.275C185.047 171.275 185.047 172.652 185.047 174.947C185.047 177.242 185.506 179.996 185.506 182.75C185.506 184.127 185.965 185.504 185.965 186.881C185.965 187.34 185.965 188.258 186.424 188.717C186.424 189.176 186.883 190.094 186.883 190.553V191.012C185.047 189.176 182.752 187.799 180.916 185.963C180.916 185.963 180.916 185.504 180.457 185.504L179.998 185.045V184.586C179.998 184.127 179.539 183.668 179.539 183.209C179.081 181.373 178.621 179.078 178.163 176.324C177.704 173.57 177.245 171.275 176.786 169.439C176.327 167.603 175.868 166.226 175.868 166.226C175.868 166.226 176.327 167.603 176.327 169.439C176.327 171.275 176.786 174.029 176.786 176.324C176.786 178.619 177.245 181.373 177.245 183.209C176.786 182.75 175.868 182.291 175.409 181.832C174.491 180.914 173.114 179.996 172.196 179.537C172.196 179.078 172.196 178.619 171.278 178.16C171.278 178.16 170.819 177.701 170.819 177.242C170.36 175.865 170.36 174.029 169.901 172.193C169.901 170.357 169.442 168.521 169.442 167.144C169.442 165.767 168.983 164.849 168.983 164.849C168.983 164.849 168.983 165.767 168.983 167.144C168.983 168.521 168.524 170.357 168.524 172.193C168.524 174.029 168.524 175.406 168.524 176.783C167.606 175.865 166.229 174.947 165.311 174.488C165.311 174.029 165.311 173.57 164.852 173.111C164.852 173.111 164.852 173.111 164.393 172.652C164.393 172.652 164.393 172.193 163.934 172.193C163.934 172.193 163.934 171.734 163.475 171.275C163.016 169.898 162.557 168.521 162.557 166.685C162.098 164.849 162.098 163.013 161.639 161.636C161.639 160.259 161.18 159.341 161.18 159.341C161.18 159.341 161.18 160.259 161.18 161.636C161.18 163.013 161.18 164.849 161.18 166.685C161.18 168.521 161.18 170.357 161.639 171.734C159.344 169.898 157.049 168.521 155.213 166.685C155.213 166.226 155.213 165.767 155.213 165.767C155.213 165.767 155.213 165.767 154.754 165.308C154.754 165.308 154.754 164.849 154.295 164.39C154.295 163.931 154.295 163.931 153.836 163.472C153.836 163.013 153.836 163.013 153.377 162.554C153.377 162.095 153.377 161.636 152.918 161.177C152.918 160.259 152.459 159.341 152.459 158.423C152 156.587 152 154.292 151.541 152.915C151.541 151.538 151.082 150.62 151.082 150.62C151.082 150.62 151.082 151.538 151.082 152.915C151.082 154.292 151.082 156.587 151.082 158.423C151.082 159.341 151.082 160.259 151.082 161.177C151.082 161.636 151.082 162.095 151.082 162.554C151.082 163.013 151.082 163.472 151.082 163.931C151.082 163.931 151.082 163.931 151.082 164.39C149.246 163.013 147.41 161.177 146.033 159.8C145.574 159.341 145.574 159.341 145.115 159.341V158.882C145.115 158.423 145.115 157.964 144.656 157.505C144.656 156.587 144.197 155.669 144.197 154.751C144.197 152.915 143.738 150.62 143.738 149.243C143.738 148.326 143.738 147.867 143.279 147.408C143.279 146.949 143.279 146.949 143.279 146.949V147.408C143.279 147.867 143.279 148.326 143.279 149.243C143.279 150.62 143.279 152.915 142.82 154.751C142.82 155.669 142.82 156.587 142.82 157.505C142.82 157.964 142.82 158.423 142.82 158.882C142.82 159.341 142.82 159.8 142.82 159.8C142.361 160.718 142.361 161.636 142.82 162.095L143.279 162.554L143.738 163.013C152 170.816 161.639 177.242 170.36 184.127C177.704 190.094 185.047 196.52 193.309 201.11C200.653 205.241 208.915 207.076 217.177 207.076C225.898 207.076 236.454 204.782 245.175 207.994C254.814 213.961 264.453 219.469 274.551 224.518C286.026 230.026 297.959 233.698 310.352 235.534C320.909 237.37 333.302 239.206 343.4 235.993H343.859C356.71 245.173 370.021 253.435 385.627 256.189C402.61 258.943 420.51 253.894 437.493 254.353C446.673 254.812 455.853 256.189 464.574 258.943C475.589 262.156 485.228 269.499 493.949 277.302C501.293 283.269 508.178 289.236 513.227 297.498C518.276 305.76 518.735 315.399 517.358 324.578C517.358 325.037 517.358 325.955 517.817 325.955C517.817 326.873 517.817 327.332 518.735 327.791C528.374 332.381 538.93 331.922 548.569 327.791C552.7 325.955 556.372 323.66 559.585 320.448C561.421 318.612 562.798 316.776 565.093 315.399C572.437 309.891 570.142 321.366 569.224 322.743Z" fill="#0F1212"/>
<path d="M470.999 273.171C451.721 262.614 427.854 262.614 414.543 282.351C414.084 283.269 411.33 284.646 410.871 286.023C407.199 314.48 426.936 340.184 454.934 345.233C471.917 348.446 496.702 341.102 503.128 323.201C510.931 301.629 487.522 282.351 470.999 273.171ZM500.374 319.07C497.161 336.512 473.753 343.397 458.606 342.02C432.443 339.266 413.166 315.857 414.543 290.613C414.543 290.613 414.543 290.613 414.543 290.154C419.133 280.974 426.018 273.63 436.115 270.876C445.754 268.122 456.311 270.876 465.032 275.007C480.638 281.892 504.046 299.334 500.374 319.07Z" fill="#0F1212"/>
<path d="M401.691 305.3C401.691 305.3 401.691 305.759 401.232 306.218C401.232 306.677 401.232 307.595 401.232 308.513C401.232 309.431 401.691 310.349 401.691 311.726C401.691 312.185 402.15 313.103 402.15 313.562C402.15 314.021 402.15 314.939 402.15 315.857C402.15 317.234 402.15 319.07 402.15 320.906C402.15 322.742 402.15 324.578 402.609 326.414C402.609 326.873 402.609 327.332 402.609 327.791V328.709V329.627C402.609 330.086 402.609 330.545 403.068 331.463C403.068 331.922 403.527 332.381 403.527 332.84C403.986 333.758 404.445 335.135 405.363 336.053C406.281 336.971 406.74 337.889 407.658 338.807C409.494 340.184 411.33 341.561 413.166 342.479C414.084 342.938 415.002 343.397 415.92 343.856L416.837 344.315H417.297H417.755C418.214 344.315 418.673 344.774 419.132 344.774C420.968 345.233 422.804 345.692 424.64 346.61C426.476 347.069 427.853 347.528 429.23 347.987C431.984 347.069 434.738 347.987 436.574 347.987C438.41 348.446 439.328 348.446 439.328 348.446C439.328 348.446 438.41 347.987 436.574 347.069C434.738 346.151 432.443 345.233 429.689 344.315C428.312 343.856 426.935 342.938 425.099 342.479C423.263 341.561 421.886 341.102 420.05 340.184C419.591 340.184 419.132 339.725 418.673 339.725H418.214L417.755 339.266C416.838 338.807 415.92 338.348 415.002 337.889C413.166 336.971 411.789 336.053 410.412 334.676C409.035 333.758 408.117 332.381 407.199 330.545C407.199 330.086 406.74 329.627 406.74 329.168C406.74 328.709 406.281 328.25 406.281 327.791V327.332V326.414C406.281 325.955 406.281 325.496 406.281 325.037C405.822 323.201 405.822 321.365 405.363 319.529C404.904 317.693 404.904 316.316 404.445 314.48C404.445 313.562 403.986 313.103 403.986 312.185C403.986 311.267 403.527 310.808 403.068 310.349C402.609 308.972 402.15 308.054 402.15 307.136C401.691 306.218 401.691 305.759 401.691 305.3Z" fill="#0F1212"/>
<path d="M369.102 269.04L374.151 272.253L379.2 275.007C382.413 277.302 385.626 279.138 388.839 281.433L393.429 284.646C393.429 284.646 403.527 292.908 403.986 292.449C404.445 291.99 404.904 291.531 404.904 290.613V290.154C404.904 290.154 404.904 290.154 404.904 289.695C404.904 289.236 404.445 289.236 404.445 288.777C404.445 288.318 404.445 287.859 404.445 286.941C404.445 286.482 404.445 286.023 404.445 285.564C404.445 285.105 404.445 284.646 404.904 284.187C404.904 283.728 405.363 283.269 405.363 282.81C405.363 282.351 405.822 281.892 405.822 281.433C406.281 280.515 406.74 279.138 407.658 278.22C408.117 277.761 412.248 272.253 412.707 271.794C413.625 270.876 416.379 269.04 416.379 268.122C417.297 267.663 418.215 266.745 418.674 266.286C419.592 265.368 420.969 264.909 421.887 264.45C422.346 263.991 422.805 263.991 423.723 263.991C424.181 263.991 424.641 263.532 425.099 263.532C426.017 263.532 426.935 263.073 427.853 263.073C428.771 263.073 429.23 263.073 430.148 263.073C431.525 263.073 431.984 263.073 431.984 263.073C431.984 263.073 431.066 263.073 430.148 262.614C429.689 262.614 428.771 262.614 427.853 262.614C426.935 262.614 426.017 262.614 425.099 263.073C424.641 263.073 424.181 263.073 423.723 263.532C423.264 263.532 422.805 263.991 421.887 263.991C420.969 264.45 419.592 264.909 418.215 265.827C417.297 266.286 416.838 266.745 415.92 267.204C415.92 266.745 415.461 266.286 415.461 265.827C415.002 265.368 415.002 264.909 414.543 264.45C414.084 263.991 414.084 263.991 414.084 263.991C414.084 263.991 414.084 264.45 414.084 264.909C414.084 265.368 414.084 265.827 414.084 266.286C414.084 266.745 414.084 267.204 413.625 267.663C413.625 268.122 413.625 268.581 413.625 268.581C413.625 268.581 413.625 269.04 413.625 269.499C413.625 269.499 413.625 269.499 413.625 269.958C412.707 270.417 412.248 271.335 411.33 271.794C410.871 272.253 410.412 272.712 409.953 273.171C409.953 272.253 409.494 271.335 409.494 270.876C409.494 270.417 409.035 269.499 409.035 269.04C409.035 268.581 409.035 268.581 408.576 268.122C408.576 267.663 408.117 267.663 408.117 267.204C408.117 266.745 407.658 266.286 407.658 266.286C407.658 265.827 407.199 265.827 407.199 265.827C407.199 265.827 407.199 265.827 407.199 266.286C407.199 266.745 407.658 266.745 407.658 267.663C407.658 268.122 407.658 268.122 407.658 268.581C407.658 269.04 407.658 269.04 407.658 269.499C407.658 269.958 407.658 270.876 407.658 271.335C407.658 272.712 407.658 274.089 407.658 275.007V275.466C406.74 276.384 405.822 277.302 405.363 278.679C404.445 279.597 403.986 280.974 403.068 281.892C402.609 282.351 402.609 282.81 402.15 283.728C402.15 283.269 402.15 283.269 402.15 282.81C401.691 281.433 401.232 280.056 400.773 278.679C399.855 275.925 398.937 273.63 398.019 271.794C397.101 269.958 396.642 268.581 396.642 268.581C396.642 268.581 397.101 269.958 397.56 271.794C398.019 273.63 398.937 276.384 399.855 279.138C400.314 280.515 400.314 281.892 400.773 283.269C400.773 283.728 400.773 284.646 400.773 285.105C400.773 285.564 400.773 286.023 400.773 286.482C400.773 286.941 400.773 287.4 400.773 287.859C400.773 288.318 400.773 288.318 400.773 288.777C400.314 288.318 395.724 285.564 393.888 284.187C394.347 283.728 394.347 283.269 394.347 282.81C394.347 282.81 393.888 281.433 393.429 280.056C393.429 279.597 392.97 279.138 392.97 278.679C392.97 278.22 392.511 277.761 392.511 277.302C392.052 276.384 391.593 275.007 391.134 274.089C390.675 273.171 390.216 271.794 389.757 270.876C389.298 270.417 389.298 269.958 388.839 269.499C388.38 269.04 388.38 268.581 387.921 268.122C387.003 266.745 386.544 265.368 386.544 265.368C386.544 265.368 387.003 266.286 387.462 268.122C387.462 268.581 387.921 269.04 387.921 269.499C387.921 269.958 388.38 270.417 388.38 270.876C388.839 271.794 389.298 273.171 389.298 274.089C389.757 275.466 389.757 276.384 390.216 277.302C390.216 277.761 390.675 278.22 390.675 278.679C390.675 279.138 390.675 279.597 390.675 280.056C390.675 280.515 390.675 281.433 391.134 281.433C390.675 280.974 389.757 280.515 389.298 279.597C387.921 278.679 386.544 277.302 385.167 276.384C385.167 275.925 384.708 275.466 384.249 274.548C384.249 274.089 383.79 273.63 383.79 273.63C383.79 273.171 383.331 272.712 382.872 272.253C382.413 271.335 381.954 270.417 381.036 269.499C380.577 268.581 379.659 267.663 379.2 266.745C378.741 266.286 378.741 265.827 378.282 265.368C377.823 264.909 377.823 264.45 377.823 264.45C376.905 263.073 376.446 262.155 376.446 262.155C376.446 262.155 376.905 263.073 377.364 264.45C377.364 264.909 377.823 265.368 377.823 265.827C377.823 266.286 378.282 266.745 378.282 267.204C378.741 268.122 379.2 269.04 379.659 269.958C380.118 270.876 380.577 271.794 381.036 272.712C381.036 272.712 381.036 273.171 381.495 273.171C381.036 272.712 380.577 272.253 379.659 271.794C377.823 270.417 375.987 269.499 374.151 268.122C374.151 267.663 374.151 267.204 373.692 266.745C373.692 266.286 373.233 265.827 373.233 265.827C373.233 265.368 372.774 264.909 372.774 264.45C372.315 263.532 371.856 262.614 371.397 262.155C370.479 260.319 369.561 258.942 368.643 257.565C367.725 256.188 367.266 255.729 367.266 255.729C367.266 255.729 367.725 256.647 368.184 258.024C368.643 259.401 369.561 261.237 370.02 262.614C370.479 263.532 370.479 264.45 370.938 265.368C370.938 265.827 370.938 266.286 371.397 266.745C370.938 266.286 370.02 265.827 369.561 265.368L364.972 262.614C364.972 262.155 364.513 261.696 364.513 261.696C364.054 260.778 363.595 260.319 363.136 259.401C362.677 258.483 361.759 257.565 361.3 256.647C359.923 254.811 358.546 252.975 358.087 251.598C357.628 251.139 357.169 250.221 357.169 249.762C356.71 249.303 356.71 249.304 356.71 249.304C356.71 249.304 356.71 249.763 357.169 250.221C357.169 250.68 357.628 251.139 358.087 252.057C358.546 253.434 359.923 255.729 360.841 257.565C361.3 258.483 361.759 259.401 362.218 260.319C362.218 260.778 362.677 260.778 362.677 261.237C361.759 260.778 361.3 260.319 360.382 259.86C359.464 259.401 358.546 258.942 357.628 258.483C357.628 258.483 357.628 258.024 357.169 258.024C356.71 257.565 356.251 256.647 355.792 256.188C355.333 255.27 354.874 254.811 354.415 253.893C353.497 252.516 352.12 251.139 351.202 250.221C350.284 249.304 349.825 248.386 349.825 248.386C349.825 248.386 350.284 249.304 350.743 250.221C351.202 251.139 352.12 252.975 353.038 254.352C353.497 255.27 353.956 255.729 353.956 256.647C352.579 256.188 351.661 255.729 350.284 254.811C350.284 254.811 350.284 254.811 350.284 254.352C349.825 253.893 348.907 252.975 348.448 252.057C347.989 251.598 347.53 251.139 347.53 251.139C347.071 250.68 346.612 250.68 346.612 250.221C346.153 249.763 345.694 249.304 345.694 249.304C345.694 249.304 346.153 249.763 346.612 250.221C346.612 250.68 347.071 250.68 347.53 251.139C347.53 251.598 347.989 252.057 348.448 252.516C348.448 252.516 348.448 252.975 348.907 252.975L345.235 251.598L339.727 249.762C337.891 249.303 336.055 248.845 334.219 248.386C332.383 247.927 330.547 247.468 328.252 247.468C326.416 247.468 324.121 247.009 322.285 247.009C320.449 247.009 318.154 247.009 316.318 247.009C318.154 247.468 319.99 247.468 322.285 247.927C324.121 248.386 325.957 248.845 327.793 249.304L332.383 251.598C334.219 252.057 336.055 252.975 337.891 253.434L343.399 256.188L348.448 258.483L353.497 260.778L358.546 263.532L369.102 269.04Z" fill="#0F1212"/>
<path d="M295.205 239.206C294.746 239.206 293.828 238.747 292.91 238.747C291.992 238.747 291.074 238.288 290.615 238.288C288.779 237.829 286.943 237.37 284.648 236.911C282.353 236.452 280.058 235.993 277.304 235.534C275.927 235.534 274.55 235.075 273.173 235.075C271.796 235.075 270.419 234.616 269.042 234.616C267.666 234.616 266.289 234.616 264.453 234.616C263.076 234.616 261.24 234.616 259.863 234.616C258.486 234.616 257.109 235.075 255.273 235.075C253.896 235.075 252.06 235.534 250.683 235.993H250.224H249.765C249.306 235.993 249.306 235.993 248.847 235.993H248.388C248.388 235.993 247.929 235.534 247.47 235.534C247.011 235.075 246.093 234.616 245.634 234.157C245.175 233.698 244.716 233.239 244.257 232.78C243.339 231.862 241.962 230.944 241.044 230.026C242.421 229.567 244.257 228.649 245.175 227.731C253.437 219.469 238.749 205.7 231.405 214.879C231.405 214.879 231.405 214.879 231.405 215.338C231.405 215.338 231.405 215.338 230.946 215.338C228.651 217.174 228.192 219.928 228.192 222.223C226.356 221.305 224.979 220.846 223.602 219.928C221.766 219.01 219.93 218.092 218.094 217.174C216.717 216.256 215.34 215.338 214.422 214.42C213.963 213.961 213.504 213.502 213.045 213.502C212.586 213.043 212.586 213.043 212.127 212.584C211.668 212.125 211.668 211.667 211.668 211.667C211.668 211.667 211.668 212.125 212.127 212.584C212.127 213.043 212.586 213.043 213.045 213.502C213.045 213.502 213.504 213.961 213.504 214.42C213.504 214.42 213.963 214.879 213.963 215.338C214.881 216.256 216.258 217.633 217.635 218.551C219.012 219.469 220.848 220.846 222.684 222.223C224.52 223.6 226.815 224.518 229.11 225.895C229.569 226.354 230.028 226.354 230.487 226.813C230.946 227.272 231.864 228.19 232.323 228.649C233.241 229.567 234.618 230.026 235.536 230.485H235.995C235.995 230.485 236.454 230.485 236.454 230.944L237.372 231.862C237.831 232.321 238.29 232.78 238.749 233.239C239.667 234.157 240.585 235.075 241.962 236.452C242.421 236.911 243.339 237.37 243.798 237.829C244.257 238.288 245.175 238.747 245.634 239.206C246.093 239.206 246.552 239.665 247.011 239.665C247.47 239.665 247.929 240.124 248.388 240.124C248.847 240.124 249.306 240.124 249.765 240.124H250.683H251.142C252.519 239.665 253.896 239.206 255.273 239.206C256.65 239.206 258.027 238.747 259.404 238.747C260.781 238.747 262.158 238.288 263.535 238.288C264.912 238.288 266.289 238.288 267.666 238.288C268.583 238.288 269.042 238.288 269.501 238.288C269.96 238.288 270.878 238.288 271.337 238.288C272.714 238.288 274.091 238.288 275.468 238.288C276.845 238.288 277.763 238.288 279.14 238.747C280.517 238.747 281.435 238.747 282.812 239.206C285.107 239.206 286.943 239.665 288.779 239.665C289.697 239.665 290.615 239.665 291.533 239.665C292.451 239.665 292.91 239.665 293.828 240.124C295.205 240.124 296.123 240.583 297.041 240.583C297.959 240.583 297.959 240.583 297.959 240.583C297.959 240.583 297.5 240.583 297.041 240.124C297.5 240.124 296.582 239.665 295.205 239.206ZM234.618 218.551C235.077 218.092 235.077 218.092 235.077 218.092C239.208 212.584 247.47 220.387 242.88 225.436C238.749 230.485 229.11 223.6 234.618 218.551Z" fill="#0F1212"/>
<path d="M254.814 291.072C255.273 293.367 256.191 295.203 256.65 297.498C257.568 301.629 258.486 306.219 259.404 310.35L259.863 312.186C259.863 312.645 259.863 313.104 259.863 313.563C259.863 314.481 259.863 315.398 259.863 316.775C259.863 319.07 259.404 320.906 259.404 323.201C259.404 325.496 258.945 327.791 258.945 330.086C258.945 332.381 259.404 335.135 260.781 337.43L261.24 338.348L261.699 339.266L262.617 340.643C263.535 341.561 263.994 342.479 264.912 343.397C266.289 345.233 268.125 346.61 269.502 347.987C270.879 349.364 272.715 351.2 273.633 352.577C274.551 353.495 275.01 354.413 275.469 354.872L277.305 357.167C278.223 359.003 279.6 360.839 280.517 362.675C280.976 363.593 281.435 364.511 281.894 365.429L282.353 366.806C282.353 367.265 282.812 367.724 282.812 368.183C283.73 370.019 284.189 372.314 284.648 374.608C284.648 375.526 285.107 376.903 285.107 377.821V381.034C285.107 381.493 285.107 381.952 285.107 382.411V383.788L285.566 382.411C285.566 381.952 285.566 381.493 285.566 380.575L286.025 377.362C286.025 376.444 286.025 375.067 286.025 374.149C286.025 371.855 285.566 369.56 285.107 367.265C285.107 366.806 284.648 366.347 284.648 365.429L284.189 363.593C283.73 362.675 283.73 361.298 283.271 360.38C282.353 358.085 281.435 356.249 280.517 354.413C280.059 353.495 279.6 352.577 278.682 351.659C278.223 350.741 277.305 349.823 276.846 348.905C275.469 347.069 274.092 345.233 272.256 343.856C270.879 342.02 269.043 340.643 267.666 339.266C266.748 338.348 266.289 337.889 265.83 336.971L264.912 335.594L264.453 335.135L263.994 334.676C263.076 333.299 262.617 331.004 262.617 329.168C262.617 327.332 262.617 325.037 262.617 322.742C262.617 320.447 263.076 318.152 262.617 315.857C262.617 314.481 262.617 313.563 262.158 312.186C262.158 311.727 262.158 310.809 261.699 310.35L261.24 308.514C260.322 304.383 258.945 299.793 257.568 295.662C256.65 293.367 256.191 291.531 255.273 289.236C254.355 287.4 253.437 285.105 251.601 283.728C252.06 284.646 252.978 285.564 252.978 286.482C254.355 288.777 254.814 289.695 254.814 291.072Z" fill="#0F1212"/>
</g>
</svg>
