<svg width="22" height="11" viewBox="0 0 22 11" fill="none" xmlns="http://www.w3.org/2000/svg">
<path id="Vector" d="M17.837 3.31529C17.837 2.7497 17.837 2.7497 17.837 2.7497C17.837 2.7497 17.837 2.74971 17.837 2.18412C17.837 1.05293 18.9683 0.487348 20.0995 1.05294C21.2307 1.05294 21.7962 2.1841 21.2306 3.31529C21.2306 3.31529 21.2306 3.31533 21.2306 3.88092C21.2306 3.88092 21.2306 4.44651 20.665 4.44651C20.665 5.0121 20.0995 5.01209 19.5339 5.57768L18.9683 6.14327L21.2306 10.668C20.665 9.53686 19.5339 7.84005 18.9683 6.14327L18.4026 6.7089C16.1403 7.84009 13.8779 8.40566 11.05 8.40566C8.22198 8.40566 5.95953 8.40566 4.26275 8.40566C2.56596 8.40566 0.869141 8.40566 0.869141 8.40566L17.837 3.31529C17.837 3.88089 17.837 3.88089 17.837 3.31529Z" fill="#0F1212"/>
</svg>
