<svg width="60" height="60" viewBox="0 0 60 60" fill="none" xmlns="http://www.w3.org/2000/svg">
<g id="shaving 1" clip-path="url(#clip0_239_1072)">
<g id="Layer 6">
<path id="Vector" d="M23.4375 21.5625C23.1889 21.5625 22.9504 21.6613 22.7746 21.8371C22.5988 22.0129 22.5 22.2514 22.5 22.5V24.375C22.5 24.6236 22.5988 24.8621 22.7746 25.0379C22.9504 25.2137 23.1889 25.3125 23.4375 25.3125C23.6861 25.3125 23.9246 25.2137 24.1004 25.0379C24.2762 24.8621 24.375 24.6236 24.375 24.375V22.5C24.375 22.2514 24.2762 22.0129 24.1004 21.8371C23.9246 21.6613 23.6861 21.5625 23.4375 21.5625Z" fill="current-color"/>
<path id="Vector_2" d="M36.5625 25.3125C36.8111 25.3125 37.0496 25.2137 37.2254 25.0379C37.4012 24.8621 37.5 24.6236 37.5 24.375V22.5C37.5 22.2514 37.4012 22.0129 37.2254 21.8371C37.0496 21.6613 36.8111 21.5625 36.5625 21.5625C36.3139 21.5625 36.0754 21.6613 35.8996 21.8371C35.7238 22.0129 35.625 22.2514 35.625 22.5V24.375C35.625 24.6236 35.7238 24.8621 35.8996 25.0379C36.0754 25.2137 36.3139 25.3125 36.5625 25.3125Z" fill="current-color"/>
<path id="Vector_3" d="M30 31.875C27.3272 31.875 25.3125 33.0844 25.3125 34.6875C25.3125 36.2906 27.3272 37.5 30 37.5C32.6728 37.5 34.6875 36.2906 34.6875 34.6875C34.6875 33.0844 32.6728 31.875 30 31.875ZM30 35.625C28.185 35.625 27.1875 34.9209 27.1875 34.6875C27.1875 34.4541 28.185 33.75 30 33.75C31.815 33.75 32.8125 34.4541 32.8125 34.6875C32.8125 34.9209 31.815 35.625 30 35.625Z" fill="current-color"/>
<path id="Vector_4" d="M19.6875 40.3125C19.6875 39.7562 19.5226 39.2125 19.2135 38.75C18.9045 38.2874 18.4652 37.927 17.9513 37.7141C17.4374 37.5012 16.8719 37.4455 16.3263 37.554C15.7807 37.6626 15.2796 37.9304 14.8863 38.3238C14.4929 38.7171 14.2251 39.2182 14.1165 39.7638C14.008 40.3094 14.0637 40.8749 14.2766 41.3888C14.4895 41.9027 14.8499 42.342 15.3125 42.651C15.775 42.96 16.3187 43.125 16.875 43.125C17.6209 43.125 18.3363 42.8287 18.8637 42.3012C19.3912 41.7738 19.6875 41.0584 19.6875 40.3125ZM15.9375 40.3125C15.9375 40.1271 15.9925 39.9458 16.0955 39.7917C16.1985 39.6375 16.3449 39.5173 16.5162 39.4464C16.6875 39.3754 16.876 39.3568 17.0579 39.393C17.2398 39.4292 17.4068 39.5185 17.5379 39.6496C17.669 39.7807 17.7583 39.9477 17.7945 40.1296C17.8307 40.3115 17.8121 40.5 17.7411 40.6713C17.6702 40.8426 17.55 40.989 17.3958 41.092C17.2417 41.195 17.0604 41.25 16.875 41.25C16.6264 41.25 16.3879 41.1512 16.2121 40.9754C16.0363 40.7996 15.9375 40.5611 15.9375 40.3125Z" fill="current-color"/>
<path id="Vector_5" d="M30.9375 46.875C30.3812 46.875 29.8375 47.04 29.375 47.349C28.9124 47.658 28.552 48.0973 28.3391 48.6112C28.1262 49.1251 28.0705 49.6906 28.179 50.2362C28.2876 50.7818 28.5554 51.2829 28.9488 51.6762C29.3421 52.0696 29.8432 52.3374 30.3888 52.446C30.9344 52.5545 31.4999 52.4988 32.0138 52.2859C32.5277 52.073 32.967 51.7126 33.276 51.25C33.5851 50.7875 33.75 50.2438 33.75 49.6875C33.75 48.9416 33.4537 48.2262 32.9262 47.6988C32.3988 47.1713 31.6834 46.875 30.9375 46.875ZM30.9375 50.625C30.7521 50.625 30.5708 50.57 30.4167 50.467C30.2625 50.364 30.1423 50.2176 30.0714 50.0463C30.0004 49.875 29.9818 49.6865 30.018 49.5046C30.0542 49.3227 30.1435 49.1557 30.2746 49.0246C30.4057 48.8935 30.5727 48.8042 30.7546 48.768C30.9365 48.7318 31.125 48.7504 31.2963 48.8214C31.4676 48.8923 31.614 49.0125 31.717 49.1667C31.82 49.3208 31.875 49.5021 31.875 49.6875C31.875 49.9361 31.7762 50.1746 31.6004 50.3504C31.4246 50.5262 31.1861 50.625 30.9375 50.625Z" fill="current-color"/>
<path id="Vector_6" d="M56.1562 58.6434L52.7738 51.8803C52.5605 51.4513 52.3939 51.0006 52.2769 50.5359L50.3747 42.9253C50.1259 41.9301 49.5567 41.0444 48.7549 40.4045C47.9531 39.7646 46.9631 39.4062 45.9375 39.3844V37.5H46.875C47.6209 37.5 48.3363 37.2037 48.8637 36.6762C49.3912 36.1488 49.6875 35.4334 49.6875 34.6875V32.8125C49.6875 32.5639 49.5887 32.3254 49.4129 32.1496C49.2371 31.9738 48.9986 31.875 48.75 31.875H43.2572C43.7915 30.37 44.0638 28.7845 44.0625 27.1875V26.1562C45.1221 25.9411 46.0748 25.3662 46.7591 24.529C47.4434 23.6918 47.8172 22.6438 47.8172 21.5625C47.8172 20.4812 47.4434 19.4332 46.7591 18.596C46.0748 17.7588 45.1221 17.1839 44.0625 16.9688V12.1875C44.0588 8.95632 42.7735 5.85854 40.4888 3.57375C38.204 1.28895 35.1062 0.00372185 31.875 0L28.125 0C24.8938 0.00372185 21.796 1.28895 19.5112 3.57375C17.2265 5.85854 15.9412 8.95632 15.9375 12.1875V16.9688C14.8779 17.1839 13.9252 17.7588 13.2409 18.596C12.5566 19.4332 12.1828 20.4812 12.1828 21.5625C12.1828 22.6438 12.5566 23.6918 13.2409 24.529C13.9252 25.3662 14.8779 25.9411 15.9375 26.1562V27.1875C15.9425 30.0924 16.8462 32.9246 18.5247 35.2955C20.2032 37.6664 22.5743 39.4598 25.3125 40.4297V44.0625C25.3125 44.3111 25.2137 44.5496 25.0379 44.7254C24.8621 44.9012 24.6236 45 24.375 45H15.9375C12.7063 45.0037 9.60854 46.289 7.32375 48.5737C5.03895 50.8585 3.75372 53.9563 3.75 57.1875V59.0625C3.75 59.3111 3.84877 59.5496 4.02459 59.7254C4.2004 59.9012 4.43886 60 4.6875 60H55.3125C55.4727 60.0009 55.6305 59.9607 55.7708 59.8832C55.911 59.8058 56.0291 59.6937 56.1137 59.5577C56.1983 59.4216 56.2467 59.2661 56.2541 59.1061C56.2616 58.946 56.2279 58.7868 56.1562 58.6434ZM44.0625 39.375H42.1875V37.5H44.0625V39.375ZM47.8125 34.6875C47.8125 34.9361 47.7137 35.1746 47.5379 35.3504C47.3621 35.5262 47.1236 35.625 46.875 35.625H39.375C39.1264 35.625 38.8879 35.5262 38.7121 35.3504C38.5363 35.1746 38.4375 34.9361 38.4375 34.6875V33.75H47.8125V34.6875ZM45.9375 21.5625C45.9368 22.144 45.7562 22.7111 45.4205 23.1859C45.0848 23.6607 44.6105 24.0201 44.0625 24.2147V18.9103C44.6105 19.1049 45.0848 19.4643 45.4205 19.9391C45.7562 20.4139 45.9368 20.981 45.9375 21.5625ZM17.8125 12.1875C17.8157 9.45345 18.9033 6.83229 20.8365 4.89902C22.7698 2.96575 25.3909 1.87823 28.125 1.875H31.875C34.6091 1.87823 37.2302 2.96575 39.1635 4.89902C41.0967 6.83229 42.1843 9.45345 42.1875 12.1875V18.75H40.6059C39.3522 18.7519 38.1242 18.394 37.0678 17.7188C36.8583 17.5847 36.6042 17.5394 36.3613 17.5928C36.1184 17.6461 35.9067 17.7938 35.7727 18.0033C35.6386 18.2128 35.5933 18.4669 35.6467 18.7098C35.7 18.9527 35.8477 19.1644 36.0572 19.2984C37.4152 20.1668 38.994 20.6273 40.6059 20.625H42.1875V24.375H39.375C39.2 24.374 39.0282 24.4221 38.8791 24.5137C38.73 24.6053 38.6095 24.7369 38.5312 24.8934L37.6931 26.5706C37.4613 27.0381 37.1034 27.4315 36.6597 27.7062C36.216 27.9809 35.7043 28.1259 35.1825 28.125H24.8175C24.2949 28.1268 23.7822 27.9822 23.3376 27.7074C22.893 27.4327 22.5343 27.0389 22.3022 26.5706C21.9745 25.9092 21.468 25.3529 20.8401 24.9648C20.2122 24.5767 19.4881 24.3724 18.75 24.375H17.8125V20.625H26.8941C28.0024 20.6281 29.1004 20.4113 30.1243 19.9871C31.1483 19.5629 32.0779 18.9398 32.8594 18.1537L34.4128 16.6003C34.5836 16.4235 34.6781 16.1867 34.6759 15.9409C34.6738 15.6951 34.5752 15.4599 34.4014 15.2861C34.2276 15.1123 33.9924 15.0137 33.7466 15.0116C33.5008 15.0094 33.264 15.1039 33.0872 15.2747L31.5338 16.8281C30.9259 17.4393 30.2028 17.9239 29.4064 18.2537C28.61 18.5836 27.7561 18.7523 26.8941 18.75H17.8125V12.1875ZM14.0625 21.5625C14.0632 20.981 14.2438 20.4139 14.5795 19.9391C14.9152 19.4643 15.3895 19.1049 15.9375 18.9103V24.2147C15.3895 24.0201 14.9152 23.6607 14.5795 23.1859C14.2438 22.7111 14.0632 22.144 14.0625 21.5625ZM5.625 57.1875C5.62823 54.4534 6.71575 51.8323 8.64902 49.899C10.5823 47.9658 13.2034 46.8782 15.9375 46.875H24.375C25.1209 46.875 25.8363 46.5787 26.3637 46.0512C26.8912 45.5238 27.1875 44.8084 27.1875 44.0625V40.9688C29.0435 41.3494 30.9578 41.3462 32.8125 40.9594V44.0625C32.8125 44.8084 33.1088 45.5238 33.6363 46.0512C34.1637 46.5787 34.8791 46.875 35.625 46.875C35.8736 46.875 36.1121 46.7762 36.2879 46.6004C36.4637 46.4246 36.5625 46.1861 36.5625 45.9375C36.5625 45.6889 36.4637 45.4504 36.2879 45.2746C36.1121 45.0988 35.8736 45 35.625 45C35.3764 45 35.1379 44.9012 34.9621 44.7254C34.7863 44.5496 34.6875 44.3111 34.6875 44.0625V40.4447C35.1432 40.2849 35.5903 40.1019 36.0272 39.8962C36.2458 39.786 36.4126 39.5947 36.492 39.3631C36.5714 39.1314 36.557 38.878 36.4519 38.6568C36.3469 38.4357 36.1595 38.2644 35.9298 38.1796C35.7001 38.0948 35.4464 38.1033 35.2228 38.2031C33.3647 39.0825 31.3144 39.4778 29.2626 39.3524C27.2107 39.227 25.2239 38.5849 23.4867 37.4858C21.7495 36.3866 20.3184 34.8662 19.3264 33.0657C18.3343 31.2652 17.8136 29.2432 17.8125 27.1875V26.25H18.75C19.1396 26.2487 19.5217 26.3565 19.8531 26.5614C20.1845 26.7662 20.4519 27.0597 20.625 27.4088C21.0119 28.1892 21.6098 28.8457 22.3508 29.3037C23.0919 29.7617 23.9464 30.0029 24.8175 30H35.1825C36.0536 30.0029 36.9081 29.7617 37.6492 29.3037C38.3902 28.8457 38.988 28.1892 39.375 27.4088L39.9544 26.25H42.1875V27.1875C42.1858 28.798 41.8616 30.3918 41.2341 31.875H37.5C37.2514 31.875 37.0129 31.9738 36.8371 32.1496C36.6613 32.3254 36.5625 32.5639 36.5625 32.8125V34.6875C36.5625 35.4334 36.8588 36.1488 37.3863 36.6762C37.9137 37.2037 38.6291 37.5 39.375 37.5H40.3125V39.4228C39.9253 39.5019 39.5644 39.6776 39.2634 39.9336C38.9623 40.1895 38.7309 40.5175 38.5905 40.8869C38.4502 41.2563 38.4056 41.6552 38.4608 42.0465C38.516 42.4378 38.6692 42.8088 38.9062 43.125C38.602 43.5307 38.4375 44.0241 38.4375 44.5312C38.4375 45.0384 38.602 45.5318 38.9062 45.9375C38.602 46.3432 38.4375 46.8366 38.4375 47.3438C38.4375 47.8509 38.602 48.3443 38.9062 48.75C38.6451 49.0982 38.4861 49.5123 38.447 49.9458C38.4079 50.3793 38.4903 50.8151 38.6849 51.2044C38.8796 51.5937 39.1788 51.9211 39.5491 52.15C39.9193 52.3788 40.346 52.5 40.7812 52.5H40.8881C41.0789 52.5001 41.2652 52.5584 41.422 52.6671C41.5788 52.7758 41.6987 52.9298 41.7656 53.1084L43.6472 58.125H5.625V57.1875ZM45.6497 58.125L43.5216 52.4513C43.3193 51.9159 42.9592 51.4546 42.4889 51.1285C42.0186 50.8024 41.4604 50.6268 40.8881 50.625H40.7812C40.6569 50.625 40.5377 50.5756 40.4498 50.4877C40.3619 50.3998 40.3125 50.2806 40.3125 50.1562C40.3125 50.0319 40.3619 49.9127 40.4498 49.8248C40.5377 49.7369 40.6569 49.6875 40.7812 49.6875H45C45.2486 49.6875 45.4871 49.5887 45.6629 49.4129C45.8387 49.2371 45.9375 48.9986 45.9375 48.75C45.9375 48.5014 45.8387 48.2629 45.6629 48.0871C45.4871 47.9113 45.2486 47.8125 45 47.8125H40.7812C40.6569 47.8125 40.5377 47.7631 40.4498 47.6752C40.3619 47.5873 40.3125 47.4681 40.3125 47.3438C40.3125 47.2194 40.3619 47.1002 40.4498 47.0123C40.5377 46.9244 40.6569 46.875 40.7812 46.875H45C45.2486 46.875 45.4871 46.7762 45.6629 46.6004C45.8387 46.4246 45.9375 46.1861 45.9375 45.9375C45.9375 45.6889 45.8387 45.4504 45.6629 45.2746C45.4871 45.0988 45.2486 45 45 45H40.7812C40.6569 45 40.5377 44.9506 40.4498 44.8627C40.3619 44.7748 40.3125 44.6556 40.3125 44.5312C40.3125 44.4069 40.3619 44.2877 40.4498 44.1998C40.5377 44.1119 40.6569 44.0625 40.7812 44.0625H45C45.2486 44.0625 45.4871 43.9637 45.6629 43.7879C45.8387 43.6121 45.9375 43.3736 45.9375 43.125C45.9375 42.8764 45.8387 42.6379 45.6629 42.4621C45.4871 42.2863 45.2486 42.1875 45 42.1875H40.7812C40.6569 42.1875 40.5377 42.1381 40.4498 42.0502C40.3619 41.9623 40.3125 41.8431 40.3125 41.7188C40.3125 41.5944 40.3619 41.4752 40.4498 41.3873C40.5377 41.2994 40.6569 41.25 40.7812 41.25H45.8222C46.4495 41.2499 47.0588 41.4594 47.5533 41.8454C48.0478 42.2313 48.399 42.7715 48.5512 43.38L50.4534 50.9916C50.6033 51.5885 50.8174 52.1675 51.0919 52.7184L53.7956 58.125H45.6497Z" fill="current-color"/>
</g>
</g>
<defs>
<clipPath id="clip0_239_1072">
<rect width="60" height="60" fill="current-color"/>
</clipPath>
</defs>
</svg>
