<svg width="20" height="20" viewBox="0 0 20 20" fill="none" xmlns="http://www.w3.org/2000/svg">
<g id="shopping-cart 1" clip-path="url(#clip0_239_1163)">
<path id="Vector" d="M20.0389 6.71874V9.84375C20.0389 10.2753 19.6892 10.625 19.2577 10.625H18.7439L18.4148 13.5542C18.3699 13.9534 18.0318 14.2482 17.6393 14.2484C17.6102 14.2484 17.5809 14.2467 17.5511 14.2433C17.1224 14.1953 16.8138 13.8084 16.8621 13.3798L17.2692 9.75662C17.3136 9.36142 17.6477 9.0625 18.0455 9.0625H18.4766V7.49999H1.60157V9.0625H14.9219C15.3534 9.0625 15.7032 9.41238 15.7032 9.84375C15.7032 10.2753 15.3534 10.625 14.9219 10.625H2.92084L3.69233 17.061C3.78632 17.8458 4.45329 18.4375 5.24369 18.4375H14.897C15.6932 18.4375 16.3608 17.8407 16.4498 17.0494C16.4978 16.6206 16.8845 16.3123 17.3133 16.3603C17.742 16.4085 18.0506 16.7952 18.0025 17.224C17.8246 18.8065 16.4896 20 14.897 20H5.24369C3.66288 20 2.32895 18.8164 2.14081 17.2469L1.3472 10.625H0.820314C0.388795 10.625 0.0390625 10.2753 0.0390625 9.84375V6.71874C0.0390625 6.28722 0.388795 5.93749 0.820314 5.93749H3.59131L7.71959 0.318736C7.97502 -0.0288593 8.46391 -0.10378 8.81166 0.151805C9.15941 0.407238 9.23418 0.89613 8.97874 1.24388L5.53025 5.93749H14.5767L11.1281 1.24388C10.8727 0.89613 10.9474 0.407238 11.2952 0.151805C11.6429 -0.10378 12.1318 -0.0290119 12.3874 0.318736L16.5155 5.93749H19.2577C19.6892 5.93749 20.0389 6.28737 20.0389 6.71874ZM9.25783 12.9688V16.0938C9.25783 16.5253 9.60756 16.875 10.0391 16.875C10.4704 16.875 10.8203 16.5253 10.8203 16.0938V12.9688C10.8203 12.5372 10.4704 12.1875 10.0391 12.1875C9.60756 12.1875 9.25783 12.5372 9.25783 12.9688ZM12.3828 12.9688V16.0938C12.3828 16.5253 12.7326 16.875 13.1641 16.875C13.5955 16.875 13.9453 16.5253 13.9453 16.0938V12.9688C13.9453 12.5372 13.5955 12.1875 13.1641 12.1875C12.7326 12.1875 12.3828 12.5372 12.3828 12.9688ZM6.13282 12.9688V16.0938C6.13282 16.5253 6.48255 16.875 6.91407 16.875C7.34544 16.875 7.69533 16.5253 7.69533 16.0938V12.9688C7.69533 12.5372 7.34544 12.1875 6.91407 12.1875C6.48255 12.1875 6.13282 12.5372 6.13282 12.9688Z" fill="current-color"/>
</g>
<defs>
<clipPath id="clip0_239_1163">
<rect width="20" height="20" fill="current-color"/>
</clipPath>
</defs>
</svg>
