<svg width="16" height="16" viewBox="0 0 16 16" fill="none" xmlns="http://www.w3.org/2000/svg">
<path d="M7.75 0.25C9.125 0.25 10.4375 0.625 11.625 1.3125C12.8125 2 13.75 2.9375 14.4375 4.125C15.125 5.3125 15.5 6.625 15.5 8C15.5 9.40625 15.125 10.6875 14.4375 11.875C13.75 13.0625 12.8125 14.0312 11.625 14.7188C10.4375 15.4062 9.125 15.75 7.75 15.75C6.34375 15.75 5.0625 15.4062 3.875 14.7188C2.6875 14.0312 1.71875 13.0625 1.03125 11.875C0.34375 10.6875 0 9.40625 0 8C0 6.625 0.34375 5.3125 1.03125 4.125C1.71875 2.9375 2.6875 2 3.875 1.3125C5.0625 0.625 6.34375 0.25 7.75 0.25ZM13.0625 10.8438H13.0312C13.0625 10.7812 13.0625 10.6875 13.0312 10.625C13 10.5625 12.9688 10.5312 12.9062 10.5C12.2812 10.4062 11.75 10.0938 11.3125 9.5625C11.0625 9.3125 10.9062 9.03125 10.7812 8.71875H10.75C10.6875 8.5625 10.6562 8.4375 10.7188 8.3125C10.75 8.1875 10.9375 8.09375 11.2812 7.96875L11.4688 7.90625C11.8125 7.78125 12 7.59375 12 7.40625C12 7.21875 11.875 7.09375 11.6875 7C11.5 6.96875 11.375 6.96875 11.25 7C11.0625 7.09375 10.9062 7.15625 10.7812 7.15625C10.7188 7.15625 10.6562 7.15625 10.625 7.09375V6.875C10.6562 6.375 10.6562 5.96875 10.6562 5.71875C10.6562 5.28125 10.5938 4.9375 10.5 4.6875C10.25 4.15625 9.875 3.75 9.40625 3.4375C8.90625 3.15625 8.40625 3 7.84375 3H7.65625C7.21875 3 6.8125 3.09375 6.4375 3.25C5.78125 3.5625 5.3125 4.03125 5.03125 4.6875C4.90625 4.9375 4.84375 5.28125 4.84375 5.71875C4.84375 5.96875 4.84375 6.375 4.875 6.875L4.90625 7.09375C4.84375 7.15625 4.75 7.15625 4.6875 7.15625C4.53125 7.15625 4.375 7.125 4.1875 7.03125C4.0625 6.96875 3.9375 7 3.78125 7.0625C3.625 7.125 3.53125 7.21875 3.53125 7.34375C3.46875 7.59375 3.625 7.78125 4.0625 7.90625L4.21875 7.96875C4.53125 8.09375 4.71875 8.1875 4.78125 8.3125C4.84375 8.4375 4.8125 8.5625 4.75 8.71875C4.625 9.03125 4.4375 9.3125 4.1875 9.5625C3.75 10.125 3.21875 10.4375 2.625 10.5C2.5625 10.5312 2.5 10.5625 2.46875 10.5938C2.4375 10.6562 2.4375 10.6875 2.4375 10.75C2.4375 11.0625 2.90625 11.2812 3.84375 11.4062C3.84375 11.4375 3.875 11.5312 3.9375 11.6562L4 11.9062C4 12.0312 4.09375 12.0938 4.25 12.0938L4.5 12.0625C4.6875 12.0312 4.875 12 5.0625 12C5.3125 12 5.5 12.0312 5.6875 12.0938C5.8125 12.1562 5.96875 12.2812 6.21875 12.4375H6.25C6.5 12.625 6.6875 12.75 6.875 12.8125C7.15625 12.9688 7.4375 13.0312 7.75 13.0312C8.03125 13.0312 8.3125 12.9688 8.59375 12.8438C8.78125 12.7812 9 12.625 9.28125 12.4375C9.5 12.2812 9.6875 12.1562 9.8125 12.0938C9.96875 12.0312 10.1875 12 10.4375 12C10.5938 12 10.7812 12.0312 11 12.0625C11.125 12.0938 11.1875 12.0938 11.25 12.0938C11.375 12.0938 11.4688 12.0312 11.5 11.9062L11.5625 11.6562C11.5938 11.5312 11.625 11.4375 11.6562 11.4062C12.4688 11.2812 12.9375 11.0938 13.0625 10.8438Z" fill="current-color"/>
</svg>
