<svg width="16" height="16" viewBox="0 0 16 16" fill="none" xmlns="http://www.w3.org/2000/svg">
<path d="M8 0.25C9.375 0.25 10.6875 0.625 11.875 1.3125C13.0625 2 14 2.9375 14.6875 4.125C15.375 5.3125 15.75 6.625 15.75 8C15.75 9.40625 15.375 10.6875 14.6875 11.875C14 13.0625 13.0625 14.0312 11.875 14.7188C10.6875 15.4062 9.375 15.75 8 15.75C6.59375 15.75 5.3125 15.4062 4.125 14.7188C2.9375 14.0312 1.96875 13.0625 1.28125 11.875C0.59375 10.6875 0.25 9.40625 0.25 8C0.25 6.625 0.59375 5.3125 1.28125 4.125C1.96875 2.9375 2.9375 2 4.125 1.3125C5.3125 0.625 6.59375 0.25 8 0.25ZM13.125 3.8125C12.875 4.125 12.5625 4.46875 12.1562 4.8125C11.3438 5.5 10.4375 6.03125 9.4375 6.4375C9.625 6.875 9.8125 7.3125 10 7.75C10.9375 7.625 11.9375 7.625 13.0625 7.71875C13.625 7.78125 14.1562 7.875 14.625 7.9375C14.5938 7.1875 14.4688 6.4375 14.2188 5.75C13.9688 5.0625 13.5938 4.40625 13.125 3.8125ZM12.375 3.0625C11.5625 2.34375 10.625 1.84375 9.59375 1.59375C8.53125 1.34375 7.5 1.3125 6.4375 1.5625C7.3125 2.75 8.15625 4.0625 8.90625 5.4375C9.90625 5.09375 10.75 4.625 11.5 4C11.875 3.6875 12.1875 3.375 12.375 3.0625ZM5.1875 2.03125C4.25 2.46875 3.4375 3.09375 2.8125 3.90625C2.15625 4.71875 1.71875 5.65625 1.53125 6.65625C2.09375 6.65625 2.75 6.625 3.53125 6.5625C4.96875 6.4375 6.3125 6.21875 7.625 5.84375C6.875 4.5 6.0625 3.21875 5.1875 2.03125ZM1.375 8C1.375 8.84375 1.5 9.65625 1.8125 10.4062C2.125 11.1562 2.53125 11.8438 3.09375 12.4375C3.65625 11.4688 4.40625 10.5938 5.40625 9.78125C6.46875 8.90625 7.5625 8.3125 8.71875 8C8.5625 7.625 8.375 7.25 8.1875 6.875C6.78125 7.3125 5.28125 7.59375 3.65625 7.71875C2.78125 7.78125 2 7.8125 1.375 7.8125V8ZM3.9375 13.2188C4.875 14 5.96875 14.4688 7.15625 14.5938C8.34375 14.7188 9.5 14.5625 10.5938 14.0938C10.3125 12.5 9.84375 10.8438 9.1875 9.09375C7.90625 9.53125 6.78125 10.1562 5.8125 10.9688C4.9375 11.7188 4.3125 12.4688 3.9375 13.2188ZM11.6875 13.5C12.4375 13 13.0625 12.375 13.5625 11.5938C14.0625 10.8438 14.375 10 14.5312 9.0625C14.1562 8.9375 13.6875 8.84375 13.1562 8.78125C12.1875 8.65625 11.2812 8.65625 10.4062 8.78125C11 10.4688 11.4375 12.0312 11.6875 13.5Z" fill="current-color"/>
</svg>
