<svg width="18" height="12" viewBox="0 0 18 12" fill="none" xmlns="http://www.w3.org/2000/svg">
<path d="M7.25 5.40625C7.90625 5.59375 8.40625 5.9375 8.75 6.4375C9.09375 6.9375 9.28125 7.53125 9.28125 8.21875C9.28125 9.28125 8.875 10.0938 8.0625 10.6562C7.375 11.1875 6.46875 11.4375 5.375 11.4375H0V0.34375H5.21875C6.28125 0.34375 7.125 0.53125 7.71875 0.90625C8.40625 1.34375 8.75 2.09375 8.75 3.125C8.75 4.1875 8.25 4.9375 7.25 5.40625ZM2.4375 2.25V4.84375H4.90625C5.34375 4.84375 5.71875 4.75 5.96875 4.53125C6.21875 4.3125 6.375 3.96875 6.375 3.5C6.375 2.6875 5.8125 2.25 4.71875 2.25H2.4375ZM5.03125 9.5625C6.21875 9.5625 6.84375 9.09375 6.84375 8.09375C6.84375 7.03125 6.25 6.5 5.09375 6.5H2.4375V9.5625H5.03125ZM16.25 2.03125V0.9375H11.75V2.03125H16.25ZM18 7.53125L17.9688 7.9375H12.1875C12.1875 8.625 12.3438 9.125 12.6875 9.46875C13.0312 9.84375 13.5312 10 14.1562 10C14.5312 10 14.875 9.90625 15.2188 9.71875C15.5625 9.53125 15.7812 9.28125 15.9062 8.9375H17.8438C17.25 10.75 16 11.625 14.0938 11.625C12.8438 11.625 11.8438 11.25 11.0938 10.4688C10.3438 9.71875 10 8.6875 10 7.4375C10 6.65625 10.1562 5.9375 10.5 5.28125C10.8438 4.65625 11.3438 4.125 11.9688 3.75C12.5938 3.375 13.2812 3.1875 14.0938 3.1875C15.2812 3.1875 16.25 3.625 17 4.46875C17.6562 5.28125 18 6.3125 18 7.53125ZM12.1875 6.5625H15.7812C15.7188 6.03125 15.5625 5.625 15.2812 5.3125C14.9688 5 14.5625 4.84375 14.0312 4.84375C13.5 4.84375 13.0625 5 12.75 5.3125C12.4062 5.625 12.2188 6.0625 12.1875 6.5625Z" fill="current-color"/>
</svg>
